<svg width="50" height="50" viewBox="0 0 50 50" fill="none" xmlns="http://www.w3.org/2000/svg">
<rect width="50" height="50" rx="25" fill="#252525" fill-opacity="0.8"/>
<g clip-path="url(#clip0_340_269)">
<path d="M36.6389 19.814H34.8291C34.6084 19.814 34.4296 19.9929 34.4296 20.2135C34.4296 20.4342 34.6084 20.613 34.8291 20.613H36.6389C37.2997 20.613 37.8374 21.1507 37.8374 21.8115V37.8106C37.8374 37.8253 37.8254 37.8372 37.8107 37.8372H33.364V36.2392H35.4048C35.858 36.2392 36.2283 35.8705 36.2304 35.4173L36.2394 33.4502C36.2436 32.9987 35.8638 32.6186 35.4137 32.6208H33.364V31.0459H35.4048C35.858 31.0459 36.2283 30.6773 36.2304 30.2241L36.2394 28.2569C36.2436 27.8054 35.8638 27.4253 35.4137 27.4275H33.364V25.8295H35.4048C35.858 25.8295 36.2283 25.4608 36.2304 25.0076L36.2394 23.0404C36.2436 22.589 35.8638 22.2088 35.4137 22.211H33.364V18.0752C33.364 16.9737 32.4679 16.0777 31.3665 16.0777H30.0981C29.8937 13.444 27.6853 11.3635 25 11.3635C22.3148 11.3635 20.1064 13.444 19.9019 16.0777H18.608C17.5065 16.0777 16.6105 16.9737 16.6105 18.0752V19.814H13.3612C12.2597 19.814 11.3636 20.7101 11.3636 21.8115V37.8106C11.3636 38.2659 11.734 38.6363 12.1893 38.6363H37.8107C38.266 38.6363 38.6364 38.2659 38.6364 37.8106V21.8115C38.6364 20.7101 37.7403 19.814 36.6389 19.814ZM33.364 23.01H35.4137C35.4164 23.01 35.4248 23.01 35.4326 23.0179C35.4404 23.0257 35.4404 23.034 35.4404 23.0367L35.4315 25.0039C35.4314 25.0185 35.4194 25.0304 35.4048 25.0304H33.364V23.01ZM33.364 28.2265H35.4137C35.4164 28.2265 35.4248 28.2265 35.4326 28.2343C35.4404 28.2421 35.4404 28.2505 35.4404 28.2532L35.4315 30.2204C35.4314 30.235 35.4194 30.2469 35.4048 30.2469H33.364V28.2265ZM33.364 33.4198H35.4137C35.4164 33.4198 35.4248 33.4198 35.4326 33.4276C35.4404 33.4355 35.4404 33.4438 35.4404 33.4466L35.4315 35.4137C35.4314 35.4283 35.4194 35.4402 35.4048 35.4402H33.364V33.4198ZM16.6105 35.4402H14.5954C14.5805 35.4402 14.5688 35.4287 14.5687 35.4139L14.5597 33.4468C14.5597 33.4439 14.5596 33.4355 14.5674 33.4276C14.5752 33.4198 14.5836 33.4198 14.5863 33.4198H16.6105V35.4402ZM16.6105 30.2467H14.5954C14.5805 30.2467 14.5688 30.2351 14.5687 30.2203L14.5597 28.2532C14.5597 28.2505 14.5596 28.2421 14.5676 28.2342C14.5754 28.2263 14.5836 28.2263 14.5863 28.2263H16.6105V30.2467ZM16.6105 25.0303H14.5954C14.5805 25.0303 14.5688 25.0187 14.5687 25.0039L14.5597 23.0368C14.5597 23.034 14.5596 23.0257 14.5676 23.0177C14.5754 23.0098 14.5836 23.0098 14.5863 23.0098H16.6105V25.0303ZM16.6105 22.2108H14.5863C14.1345 22.2083 13.7567 22.5896 13.7607 23.0405L13.7697 25.0076C13.7718 25.4607 14.1422 25.8293 14.5954 25.8293H16.6105V27.4273H14.5863C14.1345 27.4248 13.7567 27.8061 13.7607 28.2569L13.7697 30.2241C13.7718 30.6771 14.1422 31.0458 14.5954 31.0458H16.6105V32.6209H14.5863C14.1343 32.6184 13.7567 32.9993 13.7607 33.4505L13.7697 35.4176C13.7717 35.8706 14.1422 36.2392 14.5954 36.2392H16.6105V37.8372H12.1893C12.1746 37.8372 12.1627 37.8253 12.1627 37.8106V21.8115C12.1627 21.1507 12.7003 20.613 13.3612 20.613H16.6105V22.2108ZM25 12.1625C27.3791 12.1625 29.3146 14.098 29.3146 16.4772C29.3146 18.8563 27.3791 20.7918 25 20.7918C22.6209 20.7918 20.6854 18.8563 20.6854 16.4772C20.6854 14.098 22.6209 12.1625 25 12.1625ZM28.5702 37.8372H25.3995V30.8021H28.5702V37.8372ZM20.6308 30.0031V29.204H29.3692V30.0031H20.6308ZM32.565 37.8372H29.3692V30.8021C29.7862 30.8262 30.1709 30.5212 30.1682 30.083V29.1241C30.1682 28.7276 29.8456 28.405 29.4491 28.405H20.5509C20.1544 28.405 19.8318 28.7276 19.8318 29.1241V30.083C19.829 30.5028 20.2068 30.8457 20.6308 30.8021V33.631C20.6308 33.8516 20.8097 34.0305 21.0303 34.0305C21.251 34.0305 21.4298 33.8516 21.4298 33.631V30.8021H24.6005V37.8372H21.4298V35.4954C21.4298 35.2747 21.251 35.0959 21.0303 35.0959C20.8097 35.0959 20.6308 35.2747 20.6308 35.4954V37.8372H17.4095V18.0752C17.4095 17.4143 17.9471 16.8767 18.608 16.8767H19.9019C20.1064 19.5103 22.3148 21.5908 25 21.5908C27.6853 21.5908 29.8937 19.5103 30.0981 16.8767H31.3665C32.0274 16.8767 32.565 17.4143 32.565 18.0752V37.8372ZM23.8015 17.6757V19.2737C23.8015 19.6702 24.1241 19.9928 24.5206 19.9928H25.4794C25.8759 19.9928 26.1985 19.6702 26.1985 19.2737V17.6757H27.7965C28.1931 17.6757 28.5156 17.3531 28.5156 16.9566V15.9978C28.5156 15.6012 28.1931 15.2787 27.7965 15.2787H26.1985V13.6806C26.1985 13.2841 25.8759 12.9615 25.4794 12.9615H24.5206C24.1241 12.9615 23.8015 13.2841 23.8015 13.6806V15.2787H22.2035C21.807 15.2787 21.4844 15.6012 21.4844 15.9978V16.9566C21.4844 17.3531 21.807 17.6757 22.2035 17.6757H23.8015ZM22.2834 16.0777H24.0412C24.3496 16.0777 24.6005 15.8268 24.6005 15.5184V13.7605H25.3995V15.5184C25.3995 15.8268 25.6504 16.0777 25.9588 16.0777H27.7166V16.8767H25.9588C25.6504 16.8767 25.3995 17.1276 25.3995 17.436V19.1938H24.6005V17.436C24.6005 17.1276 24.3496 16.8767 24.0412 16.8767H22.2834V16.0777ZM23.402 35.128C23.6226 35.128 23.8015 34.9492 23.8015 34.7285V33.9108C23.8015 33.6902 23.6226 33.5113 23.402 33.5113C23.1814 33.5113 23.0025 33.6902 23.0025 33.9108V34.7285C23.0025 34.9492 23.1814 35.128 23.402 35.128ZM23.3754 23.1888H19.844C19.3907 23.1888 19.0204 23.5575 19.0183 24.0107L19.0094 25.9778C19.0046 26.427 19.384 26.8098 19.8351 26.8072H23.3754C23.8306 26.8072 24.201 26.4369 24.201 25.9816V24.0145C24.201 23.5592 23.8306 23.1888 23.3754 23.1888ZM23.402 25.9816C23.402 25.9963 23.3901 26.0082 23.3754 26.0082H19.835C19.8244 26.0096 19.807 25.9921 19.8084 25.9815L19.8173 24.0143C19.8173 23.9997 19.8293 23.9878 19.8439 23.9878H23.3754C23.3901 23.9878 23.402 23.9997 23.402 24.0145V25.9816ZM26.598 35.128C26.8187 35.128 26.9975 34.9492 26.9975 34.7285V33.9108C26.9975 33.6902 26.8187 33.5113 26.598 33.5113C26.3774 33.5113 26.1985 33.6902 26.1985 33.9108V34.7285C26.1985 34.9492 26.3774 35.128 26.598 35.128ZM30.1522 23.1888H26.6247C26.1694 23.1888 25.799 23.5592 25.799 24.0145V25.9816C25.799 26.4369 26.1694 26.8072 26.6247 26.8072H30.1433C30.5965 26.8072 30.9668 26.4385 30.9689 25.9853L30.9778 24.0181C30.9821 23.5668 30.6023 23.1866 30.1522 23.1888ZM30.1699 25.9817C30.1698 25.9963 30.1579 26.0082 30.1433 26.0082H26.6247C26.61 26.0082 26.598 25.9963 26.598 25.9816V24.0145C26.598 23.9997 26.61 23.9878 26.6247 23.9878H30.1522C30.1549 23.9878 30.1633 23.9878 30.1711 23.9956C30.1788 24.0035 30.1788 24.0118 30.1788 24.0145L30.1699 25.9817Z" fill="white"/>
</g>
<defs>
<clipPath id="clip0_340_269">
<rect width="27.2727" height="27.2727" fill="white" transform="translate(11.3636 11.3635)"/>
</clipPath>
</defs>
</svg>
