<svg width="50" height="50" viewBox="0 0 50 50" fill="none" xmlns="http://www.w3.org/2000/svg">
<rect width="50" height="50" rx="25" fill="#252525" fill-opacity="0.8"/>
<path d="M35.5429 31.0025C35.5395 30.997 35.5362 30.9914 35.5328 30.9858C35.5083 30.9456 35.4831 30.9058 35.4573 30.8662C35.4431 30.8444 35.4288 30.8226 35.4143 30.801C35.3967 30.7748 35.3788 30.7487 35.3606 30.7228C35.3371 30.6891 35.3132 30.6558 35.2889 30.6228C35.2816 30.613 35.2749 30.6029 35.2676 30.5932C35.2624 30.5862 35.2569 30.5797 35.2517 30.5728C35.2225 30.534 35.1926 30.4957 35.1623 30.4579C35.1516 30.4446 35.1411 30.4313 35.1304 30.4182C35.1002 30.3813 35.0693 30.345 35.038 30.309C35.025 30.294 35.0121 30.2788 34.999 30.264C34.9729 30.2346 34.9462 30.2058 34.9195 30.1772C34.8995 30.1557 34.8797 30.1341 34.8595 30.113C34.8443 30.0972 34.8285 30.0819 34.8131 30.0664C34.2213 29.4674 33.4921 29.03 32.6711 28.7882C32.6571 28.7841 32.6428 28.7806 32.6283 28.778C32.6282 28.778 28.7542 28.0583 28.7541 28.0583C28.7472 28.057 28.7403 28.0567 28.7335 28.0556C28.5522 28.0261 28.367 28.0504 28.2008 28.1232C28.0659 27.9576 27.9771 27.7301 27.9771 27.5199V26.8185C28.2219 26.6622 28.4597 26.4865 28.6892 26.2889C29.6492 25.4623 30.2539 24.2691 30.3843 22.9674C31.0892 22.9348 31.6526 22.3512 31.6526 21.6384V20.6391C31.6526 20.235 31.4715 19.861 31.1667 19.6114V17.3142C32.5675 16.6238 32.8719 15.819 32.8719 15.2511C32.8719 14.2767 31.9643 13.0571 30.5034 12.068C29.5675 11.4345 27.6079 10.3716 25 10.3716C22.392 10.3716 20.4325 11.4345 19.4965 12.068C18.0356 13.057 17.1281 14.2767 17.1281 15.2511C17.1281 15.819 17.4325 16.6238 18.8333 17.3142V19.6114C18.5285 19.861 18.3474 20.235 18.3474 20.6391V21.6384C18.3474 22.3512 18.9107 22.9348 19.6156 22.9674C19.746 24.2691 20.3507 25.4623 21.3108 26.2889C21.5403 26.4865 21.778 26.6622 22.0229 26.8185V27.5199C22.0229 27.7301 21.934 27.9575 21.7992 28.1231C21.6267 28.0475 21.4336 28.0233 21.2459 28.0583L17.3717 28.778C17.3572 28.7806 17.343 28.7841 17.3289 28.7882C16.5083 29.0298 15.7794 29.4669 15.1878 30.0654C15.1719 30.0814 15.1559 30.0971 15.1403 30.1132C15.1203 30.134 15.1009 30.1553 15.0812 30.1765C15.0542 30.2055 15.0272 30.2345 15.0008 30.2642C14.9878 30.2788 14.9751 30.2938 14.9623 30.3086C14.9309 30.3448 14.8998 30.3813 14.8695 30.4184C14.8588 30.4314 14.8484 30.4446 14.8378 30.4578C14.8074 30.4957 14.7775 30.534 14.7482 30.5728C14.743 30.5797 14.7375 30.5862 14.7323 30.5932C14.725 30.6029 14.7183 30.613 14.7111 30.6228C14.6868 30.6558 14.6629 30.6891 14.6394 30.7228C14.6211 30.7488 14.6033 30.7749 14.5856 30.8012C14.5711 30.8227 14.5569 30.8444 14.5428 30.8661C14.517 30.9057 14.4918 30.9456 14.4671 30.9858C14.4638 30.9913 14.4604 30.9969 14.4571 31.0025C13.9834 31.783 13.7343 32.6693 13.7343 33.5937V34.1162C13.7343 34.353 13.9263 34.5449 14.163 34.5449C14.3998 34.5449 14.5917 34.3529 14.5917 34.1162V33.5937C14.5917 33.1758 14.6537 32.7675 14.773 32.3775C15.0253 32.5781 15.3314 32.685 15.6497 32.685C15.7005 32.685 15.7518 32.6822 15.803 32.6767C16.1784 32.6365 16.5156 32.4524 16.7526 32.1585L17.2191 31.58C17.4561 31.2861 17.5644 30.9174 17.5242 30.5421C17.4922 30.2438 17.3691 29.9697 17.1726 29.7508C17.2958 29.7006 17.4216 29.6554 17.5506 29.6168L20.0226 29.1576L21.9842 31.9025C22.1805 32.1771 22.488 32.3286 22.8068 32.3286C22.9406 32.3286 23.0764 32.3019 23.2068 32.2466L23.3373 32.1911L23.9082 32.8547L23.0848 38.7712H17.6978V35.295C17.6978 35.0582 17.5058 34.8663 17.2691 34.8663C17.0323 34.8663 16.8404 35.0582 16.8404 35.295V38.7712H15.1255C14.8312 38.7712 14.5918 38.5317 14.5918 38.2375V36.111C14.5918 35.8742 14.3999 35.6823 14.1631 35.6823C13.9264 35.6823 13.7345 35.8742 13.7345 36.111V38.2375C13.7345 39.0045 14.3585 39.6286 15.1256 39.6286H34.8745C35.6416 39.6286 36.2657 39.0045 36.2657 38.2375V33.5938C36.2656 32.6693 36.0165 31.783 35.5429 31.0025ZM16.5516 31.0419L16.0851 31.6205C15.9919 31.7361 15.8593 31.8085 15.7117 31.8243C15.5642 31.8401 15.419 31.7976 15.3034 31.7043L15.1245 31.5601C15.1629 31.4917 15.2031 31.4245 15.2451 31.3586C15.2455 31.3578 15.2461 31.3571 15.2466 31.3563C15.2826 31.2998 15.3205 31.2449 15.359 31.1904C15.3707 31.174 15.3824 31.1575 15.3943 31.1412C15.4287 31.0941 15.4641 31.0478 15.5004 31.0024C15.5098 30.9906 15.519 30.9786 15.5285 30.967C15.5694 30.9168 15.6117 30.8677 15.655 30.8196C15.6676 30.8054 15.6805 30.7916 15.6933 30.7777C15.7361 30.7313 15.7797 30.6855 15.8246 30.6411C15.8284 30.6373 15.8322 30.6333 15.8361 30.6295C16.0019 30.4669 16.1816 30.318 16.374 30.1844L16.4679 30.2602C16.5835 30.3534 16.6559 30.486 16.6718 30.6337C16.6875 30.7813 16.6449 30.9262 16.5516 31.0419ZM33.5321 30.2601L33.626 30.1843C33.8185 30.3179 33.9981 30.4668 34.1639 30.6294C34.1678 30.6332 34.1715 30.6372 34.1754 30.641C34.2204 30.6854 34.2639 30.7312 34.3068 30.7776C34.3196 30.7915 34.3324 30.8053 34.3451 30.8194C34.3883 30.8676 34.4306 30.9167 34.4716 30.9669C34.4811 30.9785 34.4903 30.9905 34.4996 31.0022C34.5359 31.0477 34.5713 31.094 34.6057 31.141C34.6176 31.1573 34.6293 31.1738 34.641 31.1903C34.6796 31.2448 34.7175 31.2998 34.7535 31.3562C34.754 31.3569 34.7545 31.3577 34.7549 31.3585C34.7969 31.4244 34.8372 31.4916 34.8755 31.56L34.6966 31.7042C34.5809 31.7974 34.4359 31.8399 34.2884 31.8242C34.1407 31.8084 34.0081 31.736 33.9148 31.6203L33.4483 31.0418C33.2559 30.8032 33.2935 30.4525 33.5321 30.2601ZM28.4137 29.0028C28.4142 29.0024 28.4148 29.0019 28.4154 29.0014L28.5275 28.9176C28.5475 28.9026 28.573 28.8969 28.5974 28.9013L29.047 28.9848L27.3182 31.404C27.275 31.4646 27.1969 31.4865 27.1284 31.4574L25.8539 30.916L28.4137 29.0028ZM25 30.4838L22.5019 28.6166C22.7378 28.3068 22.8803 27.9124 22.8803 27.5199V27.2689C23.5416 27.546 24.2481 27.6908 24.9952 27.6992C24.9968 27.6992 24.9984 27.6992 25 27.6992C25.0016 27.6992 25.0032 27.6992 25.0048 27.6992C25.7519 27.6908 26.4585 27.5459 27.1197 27.2689V27.5199C27.1197 27.9125 27.2622 28.3068 27.4981 28.6166L25 30.4838ZM25.8345 31.8393L25.444 32.2933H24.5561L24.1656 31.8393L25 31.4849L25.8345 31.8393ZM18.8333 16.3369C18.2823 15.9973 17.9855 15.6221 17.9855 15.251C17.9855 14.4783 19.0179 13.4274 19.9772 12.778C20.8318 12.1996 22.6207 11.229 25 11.229C27.3792 11.229 29.1681 12.1996 30.0227 12.7781C30.982 13.4275 32.0144 14.4783 32.0144 15.2511C32.0144 15.6221 31.7176 15.9973 31.1666 16.337V15.5574C31.1666 14.952 30.7568 14.4244 30.17 14.2744C29.0602 13.9907 26.8777 13.5148 24.7316 13.514C24.7296 13.514 24.728 13.514 24.7261 13.514C22.8676 13.514 21.0212 13.9232 19.7993 14.2666C19.2306 14.4265 18.8333 14.9507 18.8333 15.5414V16.3369ZM20.3201 17.8421C20.3141 17.8382 20.308 17.8345 20.302 17.8306C20.2743 17.8129 20.2475 17.795 20.2215 17.777C20.2109 17.7697 20.2005 17.7624 20.1902 17.755C20.1689 17.74 20.1483 17.7248 20.1283 17.7096C20.1145 17.699 20.1012 17.6885 20.0881 17.678C20.0723 17.6654 20.0568 17.6529 20.042 17.6402C20.0261 17.6268 20.0111 17.6133 19.9964 17.5998C19.9853 17.5897 19.9741 17.5797 19.9636 17.5696C19.9468 17.5533 19.9311 17.5372 19.9158 17.521C19.9085 17.5133 19.9008 17.5055 19.8939 17.4978C19.8931 17.4969 19.8925 17.4961 19.8917 17.4953H27.0891C27.3258 17.4953 27.5178 17.3033 27.5178 17.0666C27.5178 16.8298 27.3258 16.6379 27.0891 16.6379H19.6907V15.5414C19.6907 15.3332 19.8308 15.1484 20.0313 15.0921C21.2015 14.7632 22.9651 14.3714 24.7261 14.3714C24.7277 14.3714 24.7296 14.3714 24.7312 14.3714C26.7837 14.3723 28.8868 14.8314 29.9577 15.1051C30.1646 15.158 30.3091 15.344 30.3091 15.5574V16.6378H29.1594C28.9227 16.6378 28.7307 16.8298 28.7307 17.0665C28.7307 17.3034 28.9227 17.4953 29.1595 17.4953H30.1084C30.1076 17.4961 30.107 17.497 30.1063 17.4978C30.0993 17.5055 30.0916 17.5133 30.0843 17.521C30.069 17.5372 30.0534 17.5533 30.0366 17.5696C30.026 17.5797 30.0148 17.5897 30.0038 17.5998C29.989 17.6133 29.974 17.6268 29.9582 17.6402C29.9433 17.6529 29.9278 17.6654 29.912 17.678C29.8989 17.6885 29.8856 17.699 29.8718 17.7096C29.8518 17.7248 29.8312 17.74 29.8099 17.755C29.7996 17.7624 29.7892 17.7697 29.7786 17.777C29.7526 17.795 29.7259 17.8129 29.6981 17.8306C29.6922 17.8345 29.6861 17.8382 29.68 17.8421C29.5019 17.9542 29.2896 18.0623 29.047 18.1627C29.0419 18.1648 29.0373 18.1678 29.0323 18.1701C28.1138 18.5487 26.7335 18.8348 25.0001 18.8348C23.2666 18.8348 21.8863 18.5487 20.9678 18.1701C20.9628 18.1678 20.9583 18.1648 20.9532 18.1627C20.7105 18.0623 20.4983 17.9542 20.3201 17.8421ZM20.3605 18.8383V19.6735C20.1248 19.5513 19.8863 19.4856 19.6908 19.4505V18.4542C19.8747 18.5849 20.0958 18.7139 20.3605 18.8383ZM29.6394 18.8382C29.9042 18.7139 30.1252 18.5849 30.3092 18.4542V19.4503C30.1136 19.4855 29.8751 19.5513 29.6394 19.6734V18.8382ZM21.8702 25.6391C20.9922 24.8832 20.4736 23.7503 20.4475 22.5309C20.4425 22.2978 20.252 22.1114 20.0189 22.1114H19.6778C19.417 22.1114 19.2048 21.8992 19.2048 21.6384V20.6391C19.2048 20.4953 19.2696 20.362 19.3787 20.2732C19.5299 20.2866 19.812 20.3319 20.0513 20.4839C20.0537 20.4854 20.0561 20.4869 20.0585 20.4885C20.0923 20.5103 20.1251 20.5343 20.1565 20.5607C20.1602 20.5637 20.1639 20.5668 20.1675 20.5699C20.1828 20.5831 20.1978 20.5967 20.2124 20.6111C20.2251 20.6237 20.2384 20.6354 20.252 20.6466C20.256 20.6499 20.2601 20.653 20.2641 20.6562C20.2744 20.6643 20.2849 20.6719 20.2956 20.6792C20.2998 20.6821 20.3039 20.685 20.3082 20.6877C20.3227 20.6971 20.3374 20.7059 20.3525 20.7139C20.3526 20.7139 20.3527 20.714 20.3528 20.7141C20.3681 20.7221 20.3839 20.7293 20.3998 20.7359C20.4042 20.7378 20.4087 20.7394 20.4131 20.7411C20.4252 20.7459 20.4374 20.7502 20.4497 20.7541C20.4544 20.7555 20.4589 20.757 20.4636 20.7583C20.4798 20.763 20.4961 20.7671 20.5125 20.7704C20.5128 20.7705 20.5131 20.7705 20.5133 20.7706C20.5303 20.7739 20.5473 20.7762 20.5645 20.7781C20.5691 20.7786 20.5737 20.7789 20.5783 20.7792C20.5913 20.7803 20.6043 20.7809 20.6174 20.7811C20.6204 20.7811 20.6233 20.7815 20.6262 20.7815C20.6281 20.7815 20.63 20.7812 20.6319 20.7812C20.6488 20.781 20.6657 20.7803 20.6826 20.7787C20.6831 20.7787 20.6835 20.7787 20.6839 20.7787C20.7012 20.777 20.7185 20.7743 20.7358 20.771C20.7407 20.7701 20.7455 20.7689 20.7504 20.7679C20.7632 20.7651 20.7759 20.7619 20.7887 20.7583C20.7937 20.7569 20.7987 20.7555 20.8037 20.7539C20.8207 20.7485 20.8375 20.7427 20.8541 20.7358C21.0751 20.6435 21.2179 20.4293 21.2179 20.19V19.1647C22.3218 19.5124 23.6791 19.6922 25 19.6922C26.3208 19.6922 27.6781 19.5124 28.782 19.1647V20.19C28.782 20.4293 28.9248 20.6435 29.1458 20.7358C29.1625 20.7427 29.1794 20.7486 29.1964 20.754C29.2012 20.7555 29.206 20.7568 29.2108 20.7582C29.2238 20.7619 29.2369 20.7653 29.2501 20.7681C29.2546 20.769 29.2592 20.7701 29.2638 20.771C29.2985 20.7776 29.3335 20.781 29.3683 20.7813C29.3701 20.7813 29.3719 20.7815 29.3737 20.7815C29.3764 20.7815 29.3792 20.7812 29.382 20.7811C29.3954 20.781 29.4088 20.7803 29.4222 20.7792C29.4265 20.7789 29.4308 20.7786 29.4352 20.7781C29.4695 20.7745 29.5034 20.7679 29.5365 20.7583C29.541 20.757 29.5455 20.7555 29.55 20.7541C29.5624 20.7502 29.5747 20.7458 29.587 20.7411C29.5914 20.7394 29.5958 20.7377 29.6002 20.7359C29.6161 20.7293 29.6319 20.7221 29.6472 20.714C29.6474 20.7139 29.6475 20.7139 29.6476 20.7138C29.6627 20.7059 29.6774 20.697 29.6918 20.6877C29.6961 20.685 29.7003 20.682 29.7046 20.6791C29.7152 20.6719 29.7256 20.6642 29.7359 20.6562C29.74 20.653 29.7441 20.6499 29.7481 20.6466C29.7617 20.6353 29.775 20.6237 29.7877 20.6111C29.8021 20.5968 29.8171 20.5834 29.8322 20.5703C29.8362 20.5669 29.8402 20.5635 29.8442 20.5601C29.8582 20.5483 29.8724 20.537 29.887 20.5262C29.8884 20.5251 29.8896 20.5241 29.891 20.5231C29.9068 20.5115 29.9228 20.5006 29.9391 20.4901C29.9434 20.4872 29.9478 20.4845 29.9522 20.4817C29.9667 20.4726 29.9813 20.4638 29.996 20.4554C29.9981 20.4542 30.0002 20.4529 30.0024 20.4517C30.0191 20.4424 30.036 20.4336 30.053 20.4252C30.0572 20.4231 30.0614 20.4211 30.0656 20.419C30.0808 20.4117 30.0961 20.4046 30.1114 20.398C30.1135 20.3971 30.1155 20.3961 30.1176 20.3952C30.1352 20.3877 30.1528 20.3806 30.1704 20.3739C30.1735 20.3727 30.1766 20.3716 30.1798 20.3705C30.1964 20.3642 30.2131 20.3583 30.2296 20.3529C30.2306 20.3526 30.2315 20.3522 30.2324 20.3519C30.251 20.3458 30.2694 20.3402 30.2876 20.3349C30.2883 20.3347 30.289 20.3345 30.2897 20.3343C30.4203 20.2969 30.5399 20.2803 30.6213 20.2731C30.7304 20.3619 30.7953 20.4951 30.7953 20.639V21.6383C30.7953 21.8992 30.5831 22.1114 30.3223 22.1114H29.9812C29.748 22.1114 29.5576 22.2978 29.5526 22.5308C29.5264 23.7502 29.0079 24.8831 28.1299 25.6391C27.2194 26.423 26.1665 26.8276 25.0001 26.8417C23.8336 26.8277 22.7808 26.4231 21.8702 25.6391ZM22.8715 31.4574C22.8029 31.4865 22.7249 31.4645 22.6817 31.4041L20.9529 28.9849L21.4025 28.9013C21.427 28.8969 21.4524 28.9027 21.4724 28.9176L21.5845 29.0014C21.5852 29.0019 21.5857 29.0024 21.5864 29.0028L24.146 30.916L22.8715 31.4574ZM23.9504 38.7712L24.7325 33.1507H25.2674L26.0495 38.7712H23.9504ZM34.8745 38.7712H33.1597V35.295C33.1597 35.0582 32.9678 34.8663 32.7311 34.8663C32.4943 34.8663 32.3024 35.0582 32.3024 35.295V38.7712H26.9153L26.0919 32.8547L26.6627 32.1911L26.7933 32.2466C26.9237 32.3019 27.0594 32.3286 27.1932 32.3286C27.512 32.3286 27.8196 32.1772 28.0159 31.9025L29.9774 29.1576L32.4495 29.6168C32.5784 29.6554 32.7043 29.7006 32.8275 29.7508C32.3742 30.2573 32.3405 31.0339 32.7807 31.5799L33.2473 32.1585C33.4843 32.4524 33.8215 32.6364 34.1968 32.6766C34.2481 32.6822 34.2993 32.6849 34.3503 32.6849C34.6684 32.6849 34.9746 32.578 35.2269 32.3774C35.3462 32.7675 35.4081 33.1758 35.4081 33.5936V38.2375H35.4082C35.4083 38.5317 35.1688 38.7712 34.8745 38.7712Z" fill="white"/>
</svg>
