<svg width="31" height="58" viewBox="0 0 31 58" fill="none" xmlns="http://www.w3.org/2000/svg">
<path d="M29.291 0.418011L25.418 1.70901L26.709 5.58199L30.582 4.29099L29.291 0.418011ZM1.89721 56.3236C2.02071 56.0766 1.9206 55.7763 1.67361 55.6528C1.42662 55.5293 1.12628 55.6294 1.00279 55.8764L1.89721 56.3236ZM1.90279 54.0764C1.77929 54.3234 1.8794 54.6237 2.12639 54.7472C2.37338 54.8707 2.67372 54.7706 2.79721 54.5236L1.90279 54.0764ZM3.69721 52.7236C3.82071 52.4766 3.7206 52.1763 3.47361 52.0528C3.22662 51.9293 2.92628 52.0294 2.80279 52.2764L3.69721 52.7236ZM3.70279 50.4764C3.57929 50.7234 3.6794 51.0237 3.92639 51.1472C4.17338 51.2707 4.47372 51.1706 4.59721 50.9236L3.70279 50.4764ZM5.49721 49.1236C5.62071 48.8766 5.5206 48.5763 5.27361 48.4528C5.02662 48.3293 4.72628 48.4294 4.60279 48.6764L5.49721 49.1236ZM5.50279 46.8764C5.37929 47.1234 5.4794 47.4237 5.72639 47.5472C5.97338 47.6707 6.27372 47.5706 6.39721 47.3236L5.50279 46.8764ZM7.29721 45.5236C7.42071 45.2766 7.3206 44.9763 7.07361 44.8528C6.82662 44.7293 6.52628 44.8294 6.40279 45.0764L7.29721 45.5236ZM7.30279 43.2764C7.17929 43.5234 7.2794 43.8237 7.52639 43.9472C7.77338 44.0707 8.07372 43.9706 8.19721 43.7236L7.30279 43.2764ZM9.09721 41.9236C9.22071 41.6766 9.12059 41.3763 8.87361 41.2528C8.62662 41.1293 8.32628 41.2294 8.20279 41.4764L9.09721 41.9236ZM9.10279 39.6764C8.97929 39.9234 9.0794 40.2237 9.32639 40.3472C9.57338 40.4707 9.87372 40.3706 9.99721 40.1236L9.10279 39.6764ZM10.8972 38.3236C11.0207 38.0766 10.9206 37.7763 10.6736 37.6528C10.4266 37.5293 10.1263 37.6294 10.0028 37.8764L10.8972 38.3236ZM10.9028 36.0764C10.7793 36.3234 10.8794 36.6237 11.1264 36.7472C11.3734 36.8707 11.6737 36.7706 11.7972 36.5236L10.9028 36.0764ZM12.6972 34.7236C12.8207 34.4766 12.7206 34.1763 12.4736 34.0528C12.2266 33.9293 11.9263 34.0294 11.8028 34.2764L12.6972 34.7236ZM12.7028 32.4764C12.5793 32.7234 12.6794 33.0237 12.9264 33.1472C13.1734 33.2707 13.4737 33.1706 13.5972 32.9236L12.7028 32.4764ZM14.4972 31.1236C14.6207 30.8766 14.5206 30.5763 14.2736 30.4528C14.0266 30.3293 13.7263 30.4294 13.6028 30.6764L14.4972 31.1236ZM14.5028 28.8764C14.3793 29.1234 14.4794 29.4237 14.7264 29.5472C14.9734 29.6707 15.2737 29.5706 15.3972 29.3236L14.5028 28.8764ZM16.2972 27.5236C16.4207 27.2766 16.3206 26.9763 16.0736 26.8528C15.8266 26.7293 15.5263 26.8294 15.4028 27.0764L16.2972 27.5236ZM16.3028 25.2764C16.1793 25.5234 16.2794 25.8237 16.5264 25.9472C16.7734 26.0707 17.0737 25.9706 17.1972 25.7236L16.3028 25.2764ZM18.0972 23.9236C18.2207 23.6766 18.1206 23.3763 17.8736 23.2528C17.6266 23.1293 17.3263 23.2294 17.2028 23.4764L18.0972 23.9236ZM18.1028 21.6764C17.9793 21.9234 18.0794 22.2237 18.3264 22.3472C18.5734 22.4707 18.8737 22.3706 18.9972 22.1236L18.1028 21.6764ZM19.8972 20.3236C20.0207 20.0766 19.9206 19.7763 19.6736 19.6528C19.4266 19.5293 19.1263 19.6294 19.0028 19.8764L19.8972 20.3236ZM19.9028 18.0764C19.7793 18.3234 19.8794 18.6237 20.1264 18.7472C20.3734 18.8707 20.6737 18.7706 20.7972 18.5236L19.9028 18.0764ZM21.6972 16.7236C21.8207 16.4766 21.7206 16.1763 21.4736 16.0528C21.2266 15.9293 20.9263 16.0294 20.8028 16.2764L21.6972 16.7236ZM21.7028 14.4764C21.5793 14.7234 21.6794 15.0237 21.9264 15.1472C22.1734 15.2707 22.4737 15.1706 22.5972 14.9236L21.7028 14.4764ZM23.4972 13.1236C23.6207 12.8766 23.5206 12.5763 23.2736 12.4528C23.0266 12.3293 22.7263 12.4294 22.6028 12.6764L23.4972 13.1236ZM23.5028 10.8764C23.3793 11.1234 23.4794 11.4237 23.7264 11.5472C23.9734 11.6707 24.2737 11.5706 24.3972 11.3236L23.5028 10.8764ZM25.2972 9.5236C25.4207 9.27661 25.3206 8.97627 25.0736 8.85278C24.8266 8.72929 24.5263 8.8294 24.4028 9.07639L25.2972 9.5236ZM25.3028 7.27639C25.1793 7.52338 25.2794 7.82371 25.5264 7.94721C25.7734 8.0707 26.0737 7.97059 26.1972 7.7236L25.3028 7.27639ZM27.0972 5.9236C27.2207 5.67661 27.1206 5.37627 26.8736 5.25278C26.6266 5.12928 26.3263 5.22939 26.2028 5.47638L27.0972 5.9236ZM27.1028 3.67638C26.9793 3.92337 27.0794 4.22371 27.3264 4.3472C27.5734 4.4707 27.8737 4.37059 27.9972 4.1236L27.1028 3.67638ZM1 57L1.44721 57.2236L1.89721 56.3236L1.45 56.1L1.00279 55.8764L0.552786 56.7764L1 57ZM2.35 54.3L2.79721 54.5236L3.69721 52.7236L3.25 52.5L2.80279 52.2764L1.90279 54.0764L2.35 54.3ZM4.15 50.7L4.59721 50.9236L5.49721 49.1236L5.05 48.9L4.60279 48.6764L3.70279 50.4764L4.15 50.7ZM5.95 47.1L6.39721 47.3236L7.29721 45.5236L6.85 45.3L6.40279 45.0764L5.50279 46.8764L5.95 47.1ZM7.75 43.5L8.19721 43.7236L9.09721 41.9236L8.65 41.7L8.20279 41.4764L7.30279 43.2764L7.75 43.5ZM9.55 39.9L9.99721 40.1236L10.8972 38.3236L10.45 38.1L10.0028 37.8764L9.10279 39.6764L9.55 39.9ZM11.35 36.3L11.7972 36.5236L12.6972 34.7236L12.25 34.5L11.8028 34.2764L10.9028 36.0764L11.35 36.3ZM13.15 32.7L13.5972 32.9236L14.4972 31.1236L14.05 30.9L13.6028 30.6764L12.7028 32.4764L13.15 32.7ZM14.95 29.1L15.3972 29.3236L16.2972 27.5236L15.85 27.3L15.4028 27.0764L14.5028 28.8764L14.95 29.1ZM16.75 25.5L17.1972 25.7236L18.0972 23.9236L17.65 23.7L17.2028 23.4764L16.3028 25.2764L16.75 25.5ZM18.55 21.9L18.9972 22.1236L19.8972 20.3236L19.45 20.1L19.0028 19.8764L18.1028 21.6764L18.55 21.9ZM20.35 18.3L20.7972 18.5236L21.6972 16.7236L21.25 16.5L20.8028 16.2764L19.9028 18.0764L20.35 18.3ZM22.15 14.7L22.5972 14.9236L23.4972 13.1236L23.05 12.9L22.6028 12.6764L21.7028 14.4764L22.15 14.7ZM23.95 11.1L24.3972 11.3236L25.2972 9.5236L24.85 9.29999L24.4028 9.07639L23.5028 10.8764L23.95 11.1ZM25.75 7.49999L26.1972 7.7236L27.0972 5.9236L26.65 5.69999L26.2028 5.47638L25.3028 7.27639L25.75 7.49999ZM27.55 3.89999L27.9972 4.1236L28.4472 3.22361L28 3L27.5528 2.77639L27.1028 3.67638L27.55 3.89999Z" fill="white"/>
</svg>
