<svg width="24" height="32" viewBox="0 0 24 32" fill="none" xmlns="http://www.w3.org/2000/svg">
<path d="M1.31434 0.656523L0.656523 4.68566L4.68566 5.34348L5.34348 1.31434L1.31434 0.656523ZM3.16354 4.08363C3.32479 4.30781 3.63724 4.35882 3.86141 4.19757C4.08558 4.03632 4.13659 3.72388 3.97535 3.4997L3.16354 4.08363ZM5.11424 5.08304C4.95299 4.85886 4.64054 4.80785 4.41637 4.9691C4.19219 5.13035 4.14118 5.44279 4.30243 5.66696L5.11424 5.08304ZM5.44132 7.2503C5.60257 7.47447 5.91501 7.52548 6.13919 7.36424C6.36336 7.20299 6.41437 6.89054 6.25312 6.66637L5.44132 7.2503ZM7.39201 8.2497C7.23077 8.02553 6.91832 7.97452 6.69415 8.13576C6.46997 8.29701 6.41896 8.60946 6.58021 8.83363L7.39201 8.2497ZM7.7191 10.417C7.88035 10.6411 8.19279 10.6921 8.41696 10.5309C8.64114 10.3697 8.69215 10.0572 8.5309 9.83304L7.7191 10.417ZM9.66979 11.4164C9.50854 11.1922 9.1961 11.1412 8.97192 11.3024C8.74775 11.4637 8.69674 11.7761 8.85799 12.0003L9.66979 11.4164ZM9.99688 13.5836C10.1581 13.8078 10.4706 13.8588 10.6947 13.6976C10.9189 13.5363 10.9699 13.2239 10.8087 12.9997L9.99688 13.5836ZM11.9476 14.583C11.7863 14.3589 11.4739 14.3079 11.2497 14.4691C11.0255 14.6303 10.9745 14.9428 11.1358 15.167L11.9476 14.583ZM12.2747 16.7503C12.4359 16.9745 12.7483 17.0255 12.9725 16.8642C13.1967 16.703 13.2477 16.3905 13.0865 16.1664L12.2747 16.7503ZM14.2253 17.7497C14.0641 17.5255 13.7517 17.4745 13.5275 17.6358C13.3033 17.797 13.2523 18.1095 13.4135 18.3336L14.2253 17.7497ZM14.5524 19.917C14.7137 20.1411 15.0261 20.1922 15.2503 20.0309C15.4745 19.8697 15.5255 19.5572 15.3642 19.333L14.5524 19.917ZM16.5031 20.9164C16.3419 20.6922 16.0294 20.6412 15.8053 20.8024C15.5811 20.9637 15.5301 21.2761 15.6913 21.5003L16.5031 20.9164ZM16.8302 23.0836C16.9915 23.3078 17.3039 23.3588 17.5281 23.1976C17.7522 23.0363 17.8033 22.7239 17.642 22.4997L16.8302 23.0836ZM18.7809 24.083C18.6197 23.8589 18.3072 23.8079 18.083 23.9691C17.8589 24.1303 17.8079 24.4428 17.9691 24.667L18.7809 24.083ZM19.108 26.2503C19.2692 26.4745 19.5817 26.5255 19.8059 26.3642C20.03 26.203 20.081 25.8905 19.9198 25.6664L19.108 26.2503ZM21.0587 27.2497C20.8974 27.0255 20.585 26.9745 20.3608 27.1358C20.1366 27.297 20.0856 27.6095 20.2469 27.8336L21.0587 27.2497ZM21.3858 29.417C21.547 29.6411 21.8595 29.6922 22.0836 29.5309C22.3078 29.3697 22.3588 29.0572 22.1976 28.833L21.3858 29.417ZM23.3365 30.4164C23.1752 30.1922 22.8628 30.1412 22.6386 30.3024C22.4144 30.4637 22.3634 30.7761 22.5247 31.0003L23.3365 30.4164ZM3 3L2.5941 3.29196L3.16354 4.08363L3.56944 3.79167L3.97535 3.4997L3.4059 2.70804L3 3ZM4.70833 5.375L4.30243 5.66696L5.44132 7.2503L5.84722 6.95833L6.25312 6.66637L5.11424 5.08304L4.70833 5.375ZM6.98611 8.54167L6.58021 8.83363L7.7191 10.417L8.125 10.125L8.5309 9.83304L7.39201 8.2497L6.98611 8.54167ZM9.26389 11.7083L8.85799 12.0003L9.99688 13.5836L10.4028 13.2917L10.8087 12.9997L9.66979 11.4164L9.26389 11.7083ZM11.5417 14.875L11.1358 15.167L12.2747 16.7503L12.6806 16.4583L13.0865 16.1664L11.9476 14.583L11.5417 14.875ZM13.8194 18.0417L13.4135 18.3336L14.5524 19.917L14.9583 19.625L15.3642 19.333L14.2253 17.7497L13.8194 18.0417ZM16.0972 21.2083L15.6913 21.5003L16.8302 23.0836L17.2361 22.7917L17.642 22.4997L16.5031 20.9164L16.0972 21.2083ZM18.375 24.375L17.9691 24.667L19.108 26.2503L19.5139 25.9583L19.9198 25.6664L18.7809 24.083L18.375 24.375ZM20.6528 27.5417L20.2469 27.8336L21.3858 29.417L21.7917 29.125L22.1976 28.833L21.0587 27.2497L20.6528 27.5417ZM22.9306 30.7083L22.5247 31.0003L23.0941 31.792L23.5 31.5L23.9059 31.208L23.3365 30.4164L22.9306 30.7083Z" fill="white"/>
</svg>
