<svg width="40" height="36" viewBox="0 0 40 36" fill="none" xmlns="http://www.w3.org/2000/svg">
<path d="M0.857257 0.565579L1.06558 4.64274L5.14274 4.43442L4.93442 0.357257L0.857257 0.565579ZM3.41495 3.54822C3.61992 3.73326 3.93609 3.71711 4.12113 3.51213C4.30618 3.30716 4.29002 2.99099 4.08505 2.80595L3.41495 3.54822ZM5.58505 4.16012C5.38008 3.97507 5.06391 3.99123 4.87887 4.1962C4.69382 4.40117 4.70998 4.71734 4.91495 4.90238L5.58505 4.16012ZM6.41495 6.25655C6.61992 6.44159 6.93609 6.42544 7.12113 6.22047C7.30618 6.0155 7.29002 5.69933 7.08505 5.51428L6.41495 6.25655ZM8.58505 6.86845C8.38008 6.6834 8.06391 6.69956 7.87887 6.90453C7.69382 7.1095 7.70998 7.42567 7.91495 7.61072L8.58505 6.86845ZM9.41495 8.96488C9.61992 9.14993 9.93609 9.13377 10.1211 8.9288C10.3062 8.72383 10.29 8.40766 10.0851 8.22262L9.41495 8.96488ZM11.5851 9.57678C11.3801 9.39174 11.0639 9.40789 10.8789 9.61286C10.6938 9.81784 10.71 10.134 10.9149 10.319L11.5851 9.57678ZM12.4149 11.6732C12.6199 11.8583 12.9361 11.8421 13.1211 11.6371C13.3062 11.4322 13.29 11.116 13.0851 10.9309L12.4149 11.6732ZM14.5851 12.2851C14.3801 12.1001 14.0639 12.1162 13.8789 12.3212C13.6938 12.5262 13.71 12.8423 13.9149 13.0274L14.5851 12.2851ZM15.4149 14.3815C15.6199 14.5666 15.9361 14.5504 16.1211 14.3455C16.3062 14.1405 16.29 13.8243 16.0851 13.6393L15.4149 14.3815ZM17.5851 14.9934C17.3801 14.8084 17.0639 14.8246 16.8789 15.0295C16.6938 15.2345 16.71 15.5507 16.9149 15.7357L17.5851 14.9934ZM18.4149 17.0899C18.6199 17.2749 18.9361 17.2588 19.1211 17.0538C19.3062 16.8488 19.29 16.5327 19.0851 16.3476L18.4149 17.0899ZM20.5851 17.7018C20.3801 17.5167 20.0639 17.5329 19.8789 17.7379C19.6938 17.9428 19.71 18.259 19.9149 18.4441L20.5851 17.7018ZM21.4149 19.7982C21.6199 19.9833 21.9361 19.9671 22.1211 19.7621C22.3062 19.5572 22.29 19.241 22.0851 19.056L21.4149 19.7982ZM23.5851 20.4101C23.3801 20.2251 23.0639 20.2412 22.8789 20.4462C22.6938 20.6512 22.71 20.9673 22.915 21.1524L23.5851 20.4101ZM24.415 22.5066C24.6199 22.6916 24.9361 22.6754 25.1211 22.4705C25.3062 22.2655 25.29 21.9493 25.0851 21.7643L24.415 22.5066ZM26.5851 23.1185C26.3801 22.9334 26.0639 22.9496 25.8789 23.1545C25.6938 23.3595 25.71 23.6757 25.9149 23.8607L26.5851 23.1185ZM27.415 25.2149C27.6199 25.3999 27.9361 25.3838 28.1211 25.1788C28.3062 24.9738 28.29 24.6577 28.0851 24.4726L27.415 25.2149ZM29.5851 25.8268C29.3801 25.6417 29.0639 25.6579 28.8789 25.8629C28.6938 26.0678 28.71 26.384 28.915 26.5691L29.5851 25.8268ZM30.4149 27.9232C30.6199 28.1083 30.9361 28.0921 31.1211 27.8871C31.3062 27.6822 31.29 27.366 31.0851 27.181L30.4149 27.9232ZM32.5851 28.5351C32.3801 28.3501 32.0639 28.3662 31.8789 28.5712C31.6938 28.7762 31.71 29.0923 31.9149 29.2774L32.5851 28.5351ZM33.4149 30.6315C33.6199 30.8166 33.9361 30.8004 34.1211 30.5955C34.3062 30.3905 34.29 30.0743 34.0851 29.8893L33.4149 30.6315ZM35.585 31.2434C35.3801 31.0584 35.0639 31.0746 34.8789 31.2795C34.6938 31.4845 34.71 31.8007 34.9149 31.9857L35.585 31.2434ZM36.4149 33.3399C36.6199 33.5249 36.9361 33.5088 37.1211 33.3038C37.3062 33.0988 37.29 32.7827 37.085 32.5976L36.4149 33.3399ZM38.585 33.9518C38.3801 33.7667 38.0639 33.7829 37.8789 33.9879C37.6938 34.1928 37.71 34.509 37.9149 34.694L38.585 33.9518ZM3 2.5L2.66495 2.87113L3.41495 3.54822L3.75 3.17708L4.08505 2.80595L3.33505 2.12887L3 2.5ZM5.25 4.53125L4.91495 4.90238L6.41495 6.25655L6.75 5.88542L7.08505 5.51428L5.58505 4.16012L5.25 4.53125ZM8.25 7.23958L7.91495 7.61072L9.41495 8.96488L9.75 8.59375L10.0851 8.22262L8.58505 6.86845L8.25 7.23958ZM11.25 9.94792L10.9149 10.319L12.4149 11.6732L12.75 11.3021L13.0851 10.9309L11.5851 9.57678L11.25 9.94792ZM14.25 12.6562L13.9149 13.0274L15.4149 14.3815L15.75 14.0104L16.0851 13.6393L14.5851 12.2851L14.25 12.6562ZM17.25 15.3646L16.9149 15.7357L18.4149 17.0899L18.75 16.7188L19.0851 16.3476L17.5851 14.9934L17.25 15.3646ZM20.25 18.0729L19.9149 18.4441L21.4149 19.7982L21.75 19.4271L22.0851 19.056L20.5851 17.7018L20.25 18.0729ZM23.25 20.7813L22.915 21.1524L24.415 22.5066L24.75 22.1354L25.0851 21.7643L23.5851 20.4101L23.25 20.7813ZM26.25 23.4896L25.9149 23.8607L27.415 25.2149L27.75 24.8438L28.0851 24.4726L26.5851 23.1185L26.25 23.4896ZM29.25 26.1979L28.915 26.5691L30.4149 27.9232L30.75 27.5521L31.0851 27.181L29.5851 25.8268L29.25 26.1979ZM32.25 28.9062L31.9149 29.2774L33.4149 30.6315L33.75 30.2604L34.0851 29.8893L32.5851 28.5351L32.25 28.9062ZM35.25 31.6146L34.9149 31.9857L36.4149 33.3399L36.75 32.9687L37.085 32.5976L35.585 31.2434L35.25 31.6146ZM38.25 34.3229L37.9149 34.694L38.6649 35.3711L39 35L39.3351 34.6289L38.585 33.9518L38.25 34.3229Z" fill="white"/>
</svg>
