<svg width="6" height="31" viewBox="0 0 6 31" fill="none" xmlns="http://www.w3.org/2000/svg">
<path d="M2.99999 0.613249L0.113249 3.50001L3.00001 6.38675L5.88675 3.49999L2.99999 0.613249ZM2.5 4.48214C2.5 4.75829 2.72386 4.98214 3.00001 4.98214C3.27615 4.98214 3.5 4.75828 3.5 4.48214L2.5 4.48214ZM3.50001 6.44643C3.50001 6.17028 3.27615 5.94643 3.00001 5.94643C2.72387 5.94643 2.50001 6.17029 2.50001 6.44643L3.50001 6.44643ZM2.50002 8.41072C2.50002 8.68686 2.72388 8.91072 3.00002 8.91071C3.27616 8.91071 3.50002 8.68685 3.50002 8.41071L2.50002 8.41072ZM3.50002 10.375C3.50002 10.0989 3.27616 9.875 3.00002 9.875C2.72388 9.875 2.50002 10.0989 2.50002 10.375L3.50002 10.375ZM2.50003 12.3393C2.50003 12.6154 2.72389 12.8393 3.00003 12.8393C3.27618 12.8393 3.50003 12.6154 3.50003 12.3393L2.50003 12.3393ZM3.50004 14.3036C3.50004 14.0274 3.27618 13.8036 3.00004 13.8036C2.72389 13.8036 2.50004 14.0274 2.50004 14.3036L3.50004 14.3036ZM2.50005 16.2679C2.50005 16.544 2.7239 16.7679 3.00005 16.7679C3.27619 16.7679 3.50005 16.544 3.50005 16.2679L2.50005 16.2679ZM3.50005 18.2321C3.50005 17.956 3.27619 17.7321 3.00005 17.7321C2.72391 17.7321 2.50005 17.956 2.50005 18.2321L3.50005 18.2321ZM2.50006 20.1964C2.50006 20.4726 2.72392 20.6964 3.00006 20.6964C3.2762 20.6964 3.50006 20.4726 3.50006 20.1964L2.50006 20.1964ZM3.50007 22.1607C3.50007 21.8846 3.27621 21.6607 3.00006 21.6607C2.72392 21.6607 2.50007 21.8846 2.50007 22.1607L3.50007 22.1607ZM2.50007 24.125C2.50007 24.4011 2.72393 24.625 3.00007 24.625C3.27622 24.625 3.50007 24.4011 3.50007 24.125L2.50007 24.125ZM3.50008 26.0893C3.50008 25.8131 3.27622 25.5893 3.00008 25.5893C2.72394 25.5893 2.50008 25.8131 2.50008 26.0893L3.50008 26.0893ZM2.50009 28.0536C2.50009 28.3297 2.72395 28.5536 3.00009 28.5536C3.27623 28.5536 3.50009 28.3297 3.50009 28.0536L2.50009 28.0536ZM3.50009 30.0179C3.50009 29.7417 3.27623 29.5179 3.00009 29.5179C2.72395 29.5179 2.50009 29.7417 2.50009 30.0179L3.50009 30.0179ZM3 3.5L2.5 3.5L2.5 4.48214L3 4.48214L3.5 4.48214L3.5 3.5L3 3.5ZM3.00001 6.44643L2.50001 6.44643L2.50002 8.41072L3.00002 8.41071L3.50002 8.41071L3.50001 6.44643L3.00001 6.44643ZM3.00002 10.375L2.50002 10.375L2.50003 12.3393L3.00003 12.3393L3.50003 12.3393L3.50002 10.375L3.00002 10.375ZM3.00004 14.3036L2.50004 14.3036L2.50005 16.2679L3.00005 16.2679L3.50005 16.2679L3.50004 14.3036L3.00004 14.3036ZM3.00005 18.2321L2.50005 18.2321L2.50006 20.1964L3.00006 20.1964L3.50006 20.1964L3.50005 18.2321L3.00005 18.2321ZM3.00007 22.1607L2.50007 22.1607L2.50007 24.125L3.00007 24.125L3.50007 24.125L3.50007 22.1607L3.00007 22.1607ZM3.00008 26.0893L2.50008 26.0893L2.50009 28.0536L3.00009 28.0536L3.50009 28.0536L3.50008 26.0893L3.00008 26.0893ZM3.00009 30.0179L2.50009 30.0179L2.5001 31L3.0001 31L3.5001 31L3.50009 30.0179L3.00009 30.0179Z" fill="white"/>
</svg>
