<svg width="31" height="61" viewBox="0 0 31 61" fill="none" xmlns="http://www.w3.org/2000/svg">
<path d="M1.76422 0.391134L0.391134 4.23578L4.23578 5.60887L5.60887 1.76422L1.76422 0.391134ZM2.97001 4.10467C3.08822 4.35423 3.38636 4.46071 3.63592 4.34249C3.88548 4.22428 3.99196 3.92614 3.87374 3.67658L2.97001 4.10467ZM4.71749 5.45783C4.59928 5.20827 4.30114 5.10179 4.05158 5.22001C3.80202 5.33822 3.69554 5.63636 3.81376 5.88592L4.71749 5.45783ZM4.65751 7.66717C4.77572 7.91673 5.07386 8.02321 5.32342 7.90499C5.57298 7.78678 5.67946 7.48864 5.56124 7.23908L4.65751 7.66717ZM6.40499 9.02033C6.28678 8.77077 5.98864 8.66429 5.73908 8.78251C5.48952 8.90072 5.38304 9.19886 5.50126 9.44842L6.40499 9.02033ZM6.34501 11.2297C6.46322 11.4792 6.76136 11.5857 7.01092 11.4675C7.26048 11.3493 7.36696 11.0511 7.24874 10.8016L6.34501 11.2297ZM8.09249 12.5828C7.97428 12.3333 7.67614 12.2268 7.42658 12.345C7.17702 12.4632 7.07054 12.7614 7.18876 13.0109L8.09249 12.5828ZM8.03251 14.7922C8.15072 15.0417 8.44886 15.1482 8.69842 15.03C8.94798 14.9118 9.05446 14.6136 8.93624 14.3641L8.03251 14.7922ZM9.77999 16.1453C9.66178 15.8958 9.36364 15.7893 9.11408 15.9075C8.86452 16.0257 8.75804 16.3239 8.87626 16.5734L9.77999 16.1453ZM9.72001 18.3547C9.83822 18.6042 10.1364 18.7107 10.3859 18.5925C10.6355 18.4743 10.742 18.1761 10.6237 17.9266L9.72001 18.3547ZM11.4675 19.7078C11.3493 19.4583 11.0511 19.3518 10.8016 19.47C10.552 19.5882 10.4455 19.8864 10.5638 20.1359L11.4675 19.7078ZM11.4075 21.9172C11.5257 22.1667 11.8239 22.2732 12.0734 22.155C12.323 22.0368 12.4295 21.7386 12.3112 21.4891L11.4075 21.9172ZM13.155 23.2703C13.0368 23.0208 12.7386 22.9143 12.4891 23.0325C12.2395 23.1507 12.133 23.4489 12.2513 23.6984L13.155 23.2703ZM13.095 25.4797C13.2132 25.7292 13.5114 25.8357 13.7609 25.7175C14.0105 25.5993 14.117 25.3011 13.9987 25.0516L13.095 25.4797ZM14.8425 26.8328C14.7243 26.5833 14.4261 26.4768 14.1766 26.595C13.927 26.7132 13.8205 27.0114 13.9388 27.2609L14.8425 26.8328ZM14.7825 29.0422C14.9007 29.2917 15.1989 29.3982 15.4484 29.28C15.698 29.1618 15.8045 28.8636 15.6862 28.6141L14.7825 29.0422ZM16.53 30.3953C16.4118 30.1458 16.1136 30.0393 15.8641 30.1575C15.6145 30.2757 15.508 30.5739 15.6263 30.8234L16.53 30.3953ZM16.47 32.6047C16.5882 32.8542 16.8864 32.9607 17.1359 32.8425C17.3855 32.7243 17.492 32.4261 17.3737 32.1766L16.47 32.6047ZM18.2175 33.9578C18.0993 33.7083 17.8011 33.6018 17.5516 33.72C17.302 33.8382 17.1955 34.1364 17.3138 34.3859L18.2175 33.9578ZM18.1575 36.1672C18.2757 36.4167 18.5739 36.5232 18.8234 36.405C19.073 36.2868 19.1795 35.9886 19.0612 35.7391L18.1575 36.1672ZM19.905 37.5203C19.7868 37.2708 19.4886 37.1643 19.2391 37.2825C18.9895 37.4007 18.883 37.6989 19.0013 37.9484L19.905 37.5203ZM19.845 39.7297C19.9632 39.9792 20.2614 40.0857 20.5109 39.9675C20.7605 39.8493 20.867 39.5511 20.7487 39.3016L19.845 39.7297ZM21.5925 41.0828C21.4743 40.8333 21.1761 40.7268 20.9266 40.845C20.677 40.9632 20.5705 41.2614 20.6888 41.5109L21.5925 41.0828ZM21.5325 43.2922C21.6507 43.5417 21.9489 43.6482 22.1984 43.53C22.448 43.4118 22.5545 43.1137 22.4362 42.8641L21.5325 43.2922ZM23.28 44.6453C23.1618 44.3958 22.8636 44.2893 22.6141 44.4075C22.3645 44.5257 22.258 44.8239 22.3763 45.0734L23.28 44.6453ZM23.22 46.8547C23.3382 47.1042 23.6364 47.2107 23.8859 47.0925C24.1355 46.9743 24.242 46.6761 24.1237 46.4266L23.22 46.8547ZM24.9675 48.2078C24.8493 47.9583 24.5511 47.8518 24.3016 47.97C24.052 48.0882 23.9455 48.3864 24.0638 48.6359L24.9675 48.2078ZM24.9075 50.4172C25.0257 50.6667 25.3239 50.7732 25.5734 50.655C25.823 50.5368 25.9295 50.2387 25.8112 49.9891L24.9075 50.4172ZM26.655 51.7703C26.5368 51.5208 26.2386 51.4143 25.9891 51.5325C25.7395 51.6507 25.633 51.9489 25.7513 52.1984L26.655 51.7703ZM26.595 53.9797C26.7132 54.2292 27.0114 54.3357 27.2609 54.2175C27.5105 54.0993 27.617 53.8012 27.4987 53.5516L26.595 53.9797ZM28.3425 55.3328C28.2243 55.0833 27.9261 54.9768 27.6766 55.095C27.427 55.2132 27.3205 55.5114 27.4388 55.7609L28.3425 55.3328ZM28.2825 57.5422C28.4007 57.7917 28.6989 57.8982 28.9484 57.78C29.198 57.6618 29.3045 57.3637 29.1862 57.1141L28.2825 57.5422ZM30.03 58.8953C29.9118 58.6458 29.6136 58.5393 29.3641 58.6575C29.1145 58.7757 29.008 59.0739 29.1263 59.3234L30.03 58.8953ZM3 3L2.54813 3.21404L2.97001 4.10467L3.42187 3.89063L3.87374 3.67658L3.45187 2.78596L3 3ZM4.26563 5.67188L3.81376 5.88592L4.65751 7.66717L5.10937 7.45312L5.56124 7.23908L4.71749 5.45783L4.26563 5.67188ZM5.95312 9.23437L5.50126 9.44842L6.34501 11.2297L6.79687 11.0156L7.24874 10.8016L6.40499 9.02033L5.95312 9.23437ZM7.64062 12.7969L7.18876 13.0109L8.03251 14.7922L8.48437 14.5781L8.93624 14.3641L8.09249 12.5828L7.64062 12.7969ZM9.32812 16.3594L8.87626 16.5734L9.72001 18.3547L10.1719 18.1406L10.6237 17.9266L9.77999 16.1453L9.32812 16.3594ZM11.0156 19.9219L10.5638 20.1359L11.4075 21.9172L11.8594 21.7031L12.3112 21.4891L11.4675 19.7078L11.0156 19.9219ZM12.7031 23.4844L12.2513 23.6984L13.095 25.4797L13.5469 25.2656L13.9987 25.0516L13.155 23.2703L12.7031 23.4844ZM14.3906 27.0469L13.9388 27.2609L14.7825 29.0422L15.2344 28.8281L15.6862 28.6141L14.8425 26.8328L14.3906 27.0469ZM16.0781 30.6094L15.6263 30.8234L16.47 32.6047L16.9219 32.3906L17.3737 32.1766L16.53 30.3953L16.0781 30.6094ZM17.7656 34.1719L17.3138 34.3859L18.1575 36.1672L18.6094 35.9531L19.0612 35.7391L18.2175 33.9578L17.7656 34.1719ZM19.4531 37.7344L19.0013 37.9484L19.845 39.7297L20.2969 39.5156L20.7487 39.3016L19.905 37.5203L19.4531 37.7344ZM21.1406 41.2969L20.6888 41.5109L21.5325 43.2922L21.9844 43.0781L22.4362 42.8641L21.5925 41.0828L21.1406 41.2969ZM22.8281 44.8594L22.3763 45.0734L23.22 46.8547L23.6719 46.6406L24.1237 46.4266L23.28 44.6453L22.8281 44.8594ZM24.5156 48.4219L24.0638 48.6359L24.9075 50.4172L25.3594 50.2031L25.8112 49.9891L24.9675 48.2078L24.5156 48.4219ZM26.2031 51.9844L25.7513 52.1984L26.595 53.9797L27.0469 53.7656L27.4987 53.5516L26.655 51.7703L26.2031 51.9844ZM27.8906 55.5469L27.4388 55.7609L28.2825 57.5422L28.7344 57.3281L29.1862 57.1141L28.3425 55.3328L27.8906 55.5469ZM29.5781 59.1094L29.1263 59.3234L29.5481 60.214L30 60L30.4519 59.786L30.03 58.8953L29.5781 59.1094Z" fill="white"/>
</svg>
