<svg width="37" height="27" viewBox="0 0 37 27" fill="none" xmlns="http://www.w3.org/2000/svg">
<path d="M0.108952 1.38253L0.882526 5.39105L4.89105 4.61747L4.11747 0.608952L0.108952 1.38253ZM3.06985 3.98914C3.29857 4.14387 3.60942 4.08388 3.76414 3.85515C3.91887 3.62643 3.85888 3.31558 3.63015 3.16086L3.06985 3.98914ZM5.33015 4.31086C5.10143 4.15613 4.79058 4.21612 4.63586 4.44485C4.48113 4.67357 4.54112 4.98442 4.76985 5.13914L5.33015 4.31086ZM6.46985 6.28914C6.69857 6.44387 7.00942 6.38388 7.16414 6.15515C7.31887 5.92643 7.25888 5.61558 7.03015 5.46086L6.46985 6.28914ZM8.73015 6.61086C8.50143 6.45613 8.19058 6.51612 8.03586 6.74485C7.88113 6.97357 7.94112 7.28442 8.16985 7.43914L8.73015 6.61086ZM9.86985 8.58914C10.0986 8.74387 10.4094 8.68388 10.5641 8.45515C10.7189 8.22643 10.6589 7.91558 10.4302 7.76086L9.86985 8.58914ZM12.1302 8.91086C11.9014 8.75613 11.5906 8.81612 11.4359 9.04485C11.2811 9.27357 11.3411 9.58442 11.5698 9.73914L12.1302 8.91086ZM13.2698 10.8891C13.4986 11.0439 13.8094 10.9839 13.9641 10.7552C14.1189 10.5264 14.0589 10.2156 13.8302 10.0609L13.2698 10.8891ZM15.5302 11.2109C15.3014 11.0561 14.9906 11.1161 14.8359 11.3448C14.6811 11.5736 14.7411 11.8844 14.9698 12.0391L15.5302 11.2109ZM16.6698 13.1891C16.8986 13.3439 17.2094 13.2839 17.3641 13.0552C17.5189 12.8264 17.4589 12.5156 17.2302 12.3609L16.6698 13.1891ZM18.9302 13.5109C18.7014 13.3561 18.3906 13.4161 18.2359 13.6448C18.0811 13.8736 18.1411 14.1844 18.3698 14.3391L18.9302 13.5109ZM20.0698 15.4891C20.2986 15.6439 20.6094 15.5839 20.7641 15.3552C20.9189 15.1264 20.8589 14.8156 20.6302 14.6609L20.0698 15.4891ZM22.3302 15.8109C22.1014 15.6561 21.7906 15.7161 21.6359 15.9448C21.4811 16.1736 21.5411 16.4844 21.7698 16.6391L22.3302 15.8109ZM23.4698 17.7891C23.6986 17.9439 24.0094 17.8839 24.1641 17.6552C24.3189 17.4264 24.2589 17.1156 24.0302 16.9609L23.4698 17.7891ZM25.7302 18.1109C25.5014 17.9561 25.1906 18.0161 25.0359 18.2448C24.8811 18.4736 24.9411 18.7844 25.1698 18.9391L25.7302 18.1109ZM26.8698 20.0891C27.0986 20.2439 27.4094 20.1839 27.5641 19.9552C27.7189 19.7264 27.6589 19.4156 27.4302 19.2609L26.8698 20.0891ZM29.1302 20.4109C28.9014 20.2561 28.5906 20.3161 28.4359 20.5448C28.2811 20.7736 28.3411 21.0844 28.5698 21.2391L29.1302 20.4109ZM30.2698 22.3891C30.4986 22.5439 30.8094 22.4839 30.9641 22.2552C31.1189 22.0264 31.0589 21.7156 30.8302 21.5609L30.2698 22.3891ZM32.5302 22.7109C32.3014 22.5561 31.9906 22.6161 31.8359 22.8448C31.6811 23.0736 31.7411 23.3844 31.9698 23.5391L32.5302 22.7109ZM33.6698 24.6891C33.8986 24.8439 34.2094 24.7839 34.3641 24.5552C34.5189 24.3264 34.4589 24.0156 34.2301 23.8609L33.6698 24.6891ZM35.9301 25.0109C35.7014 24.8561 35.3906 24.9161 35.2359 25.1448C35.0811 25.3736 35.1411 25.6844 35.3698 25.8391L35.9301 25.0109ZM2.5 3L2.21985 3.41414L3.06985 3.98914L3.35 3.575L3.63015 3.16086L2.78015 2.58586L2.5 3ZM5.05 4.725L4.76985 5.13914L6.46985 6.28914L6.75 5.875L7.03015 5.46086L5.33015 4.31086L5.05 4.725ZM8.45 7.025L8.16985 7.43914L9.86985 8.58914L10.15 8.175L10.4302 7.76086L8.73015 6.61086L8.45 7.025ZM11.85 9.325L11.5698 9.73914L13.2698 10.8891L13.55 10.475L13.8302 10.0609L12.1302 8.91086L11.85 9.325ZM15.25 11.625L14.9698 12.0391L16.6698 13.1891L16.95 12.775L17.2302 12.3609L15.5302 11.2109L15.25 11.625ZM18.65 13.925L18.3698 14.3391L20.0698 15.4891L20.35 15.075L20.6302 14.6609L18.9302 13.5109L18.65 13.925ZM22.05 16.225L21.7698 16.6391L23.4698 17.7891L23.75 17.375L24.0302 16.9609L22.3302 15.8109L22.05 16.225ZM25.45 18.525L25.1698 18.9391L26.8698 20.0891L27.15 19.675L27.4302 19.2609L25.7302 18.1109L25.45 18.525ZM28.85 20.825L28.5698 21.2391L30.2698 22.3891L30.55 21.975L30.8302 21.5609L29.1302 20.4109L28.85 20.825ZM32.25 23.125L31.9698 23.5391L33.6698 24.6891L33.95 24.275L34.2301 23.8609L32.5302 22.7109L32.25 23.125ZM35.65 25.425L35.3698 25.8391L36.2198 26.4141L36.5 26L36.7802 25.5859L35.9301 25.0109L35.65 25.425Z" fill="white"/>
</svg>
