<svg width="6" height="65" viewBox="0 0 6 65" fill="none" xmlns="http://www.w3.org/2000/svg">
<path d="M3 0.113249L0.113249 3L3 5.88675L5.88675 3L3 0.113249ZM2.5 3.96875C2.5 4.24489 2.72386 4.46875 3 4.46875C3.27614 4.46875 3.5 4.24489 3.5 3.96875L2.5 3.96875ZM3.5 5.90625C3.5 5.63011 3.27614 5.40625 3 5.40625C2.72386 5.40625 2.5 5.63011 2.5 5.90625L3.5 5.90625ZM2.5 7.84375C2.5 8.11989 2.72386 8.34375 3 8.34375C3.27614 8.34375 3.5 8.11989 3.5 7.84375L2.5 7.84375ZM3.5 9.78125C3.5 9.50511 3.27614 9.28125 3 9.28125C2.72386 9.28125 2.5 9.50511 2.5 9.78125L3.5 9.78125ZM2.5 11.7187C2.5 11.9949 2.72386 12.2187 3 12.2188C3.27614 12.2188 3.5 11.9949 3.5 11.7188L2.5 11.7187ZM3.5 13.6563C3.5 13.3801 3.27614 13.1563 3 13.1562C2.72386 13.1562 2.5 13.3801 2.5 13.6562L3.5 13.6563ZM2.5 15.5937C2.5 15.8699 2.72386 16.0937 3 16.0938C3.27614 16.0938 3.5 15.8699 3.5 15.5938L2.5 15.5937ZM3.5 17.5313C3.5 17.2551 3.27614 17.0313 3 17.0313C2.72386 17.0313 2.5 17.2551 2.5 17.5313L3.5 17.5313ZM2.5 19.4687C2.5 19.7449 2.72386 19.9687 3 19.9688C3.27614 19.9688 3.5 19.7449 3.5 19.4688L2.5 19.4687ZM3.5 21.4063C3.5 21.1301 3.27614 20.9063 3 20.9062C2.72386 20.9062 2.5 21.1301 2.5 21.4062L3.5 21.4063ZM2.5 23.3437C2.5 23.6199 2.72386 23.8437 3 23.8438C3.27614 23.8438 3.5 23.6199 3.5 23.3438L2.5 23.3437ZM3.5 25.2813C3.5 25.0051 3.27614 24.7813 3 24.7812C2.72386 24.7812 2.5 25.0051 2.5 25.2812L3.5 25.2813ZM2.5 27.2187C2.5 27.4949 2.72386 27.7187 3 27.7188C3.27614 27.7188 3.5 27.4949 3.5 27.2188L2.5 27.2187ZM3.5 29.1563C3.5 28.8801 3.27614 28.6563 3 28.6562C2.72386 28.6562 2.5 28.8801 2.5 29.1562L3.5 29.1563ZM2.5 31.0938C2.5 31.3699 2.72386 31.5938 3 31.5938C3.27614 31.5938 3.5 31.3699 3.5 31.0938L2.5 31.0938ZM3.5 33.0313C3.5 32.7551 3.27614 32.5313 3 32.5313C2.72386 32.5313 2.5 32.7551 2.5 33.0313L3.5 33.0313ZM2.5 34.9688C2.5 35.2449 2.72386 35.4687 3 35.4688C3.27614 35.4688 3.5 35.2449 3.5 34.9688L2.5 34.9688ZM3.5 36.9063C3.5 36.6301 3.27614 36.4063 3 36.4062C2.72386 36.4062 2.5 36.6301 2.5 36.9062L3.5 36.9063ZM2.5 38.8437C2.5 39.1199 2.72386 39.3437 3 39.3438C3.27614 39.3438 3.5 39.1199 3.5 38.8438L2.5 38.8437ZM3.5 40.7813C3.5 40.5051 3.27614 40.2813 3 40.2812C2.72386 40.2812 2.5 40.5051 2.5 40.7812L3.5 40.7813ZM2.5 42.7187C2.5 42.9949 2.72386 43.2187 3 43.2188C3.27614 43.2188 3.5 42.9949 3.5 42.7188L2.5 42.7187ZM3.5 44.6563C3.5 44.3801 3.27614 44.1563 3 44.1562C2.72386 44.1562 2.5 44.3801 2.5 44.6562L3.5 44.6563ZM2.5 46.5937C2.5 46.8699 2.72386 47.0937 3 47.0938C3.27614 47.0938 3.5 46.8699 3.5 46.5938L2.5 46.5937ZM3.5 48.5313C3.5 48.2551 3.27614 48.0313 3 48.0312C2.72386 48.0312 2.5 48.2551 2.5 48.5312L3.5 48.5313ZM2.5 50.4687C2.5 50.7449 2.72386 50.9687 3 50.9688C3.27614 50.9688 3.5 50.7449 3.5 50.4688L2.5 50.4687ZM3.5 52.4063C3.5 52.1301 3.27614 51.9063 3 51.9062C2.72386 51.9062 2.5 52.1301 2.5 52.4062L3.5 52.4063ZM2.5 54.3437C2.5 54.6199 2.72386 54.8437 3 54.8438C3.27614 54.8438 3.5 54.6199 3.5 54.3438L2.5 54.3437ZM3.5 56.2813C3.5 56.0051 3.27614 55.7813 3 55.7812C2.72386 55.7812 2.5 56.0051 2.5 56.2812L3.5 56.2813ZM2.5 58.2188C2.5 58.4949 2.72386 58.7188 3 58.7188C3.27614 58.7188 3.5 58.4949 3.5 58.2188L2.5 58.2188ZM3.5 60.1563C3.5 59.8801 3.27614 59.6563 3 59.6563C2.72386 59.6563 2.5 59.8801 2.5 60.1563L3.5 60.1563ZM2.5 62.0938C2.5 62.3699 2.72386 62.5938 3 62.5938C3.27614 62.5938 3.5 62.3699 3.5 62.0938L2.5 62.0938ZM3.5 64.0313C3.5 63.7551 3.27614 63.5313 3 63.5313C2.72385 63.5313 2.5 63.7551 2.5 64.0313L3.5 64.0313ZM3 3L2.5 3L2.5 3.96875L3 3.96875L3.5 3.96875L3.5 3L3 3ZM3 5.90625L2.5 5.90625L2.5 7.84375L3 7.84375L3.5 7.84375L3.5 5.90625L3 5.90625ZM3 9.78125L2.5 9.78125L2.5 11.7187L3 11.7188L3.5 11.7188L3.5 9.78125L3 9.78125ZM3 13.6562L2.5 13.6562L2.5 15.5937L3 15.5938L3.5 15.5938L3.5 13.6563L3 13.6562ZM3 17.5313L2.5 17.5313L2.5 19.4687L3 19.4688L3.5 19.4688L3.5 17.5313L3 17.5313ZM3 21.4062L2.5 21.4062L2.5 23.3437L3 23.3438L3.5 23.3438L3.5 21.4063L3 21.4062ZM3 25.2812L2.5 25.2812L2.5 27.2187L3 27.2188L3.5 27.2188L3.5 25.2813L3 25.2812ZM3 29.1562L2.5 29.1562L2.5 31.0938L3 31.0938L3.5 31.0938L3.5 29.1563L3 29.1562ZM3 33.0313L2.5 33.0313L2.5 34.9688L3 34.9688L3.5 34.9688L3.5 33.0313L3 33.0313ZM3 36.9062L2.5 36.9062L2.5 38.8437L3 38.8438L3.5 38.8438L3.5 36.9063L3 36.9062ZM3 40.7812L2.5 40.7812L2.5 42.7187L3 42.7188L3.5 42.7188L3.5 40.7813L3 40.7812ZM3 44.6562L2.5 44.6562L2.5 46.5937L3 46.5938L3.5 46.5938L3.5 44.6563L3 44.6562ZM3 48.5312L2.5 48.5312L2.5 50.4687L3 50.4688L3.5 50.4688L3.5 48.5313L3 48.5312ZM3 52.4062L2.5 52.4062L2.5 54.3437L3 54.3438L3.5 54.3438L3.5 52.4063L3 52.4062ZM3 56.2812L2.5 56.2812L2.5 58.2188L3 58.2188L3.5 58.2188L3.5 56.2813L3 56.2812ZM3 60.1563L2.5 60.1563L2.5 62.0938L3 62.0938L3.5 62.0938L3.5 60.1563L3 60.1563ZM3 64.0313L2.5 64.0313L2.5 65L3 65L3.5 65L3.5 64.0313L3 64.0313Z" fill="white"/>
</svg>
