<svg width="58" height="41" viewBox="0 0 58 41" fill="none" xmlns="http://www.w3.org/2000/svg">
<path d="M57.875 0.859079L53.8591 0.124982L53.125 4.14092L57.1409 4.87502L57.875 0.859079ZM1.59304 40.3525C1.82023 40.1956 1.87716 39.8842 1.72019 39.657C1.56322 39.4298 1.2518 39.3728 1.02461 39.5298L1.59304 40.3525ZM2.64225 38.4122C2.41506 38.5691 2.35814 38.8806 2.51511 39.1077C2.67207 39.3349 2.9835 39.3919 3.21069 39.2349L2.64225 38.4122ZM4.82833 38.1172C5.05552 37.9603 5.11245 37.6489 4.95548 37.4217C4.79851 37.1945 4.48709 37.1376 4.2599 37.2945L4.82833 38.1172ZM5.87755 36.1769C5.65036 36.3338 5.59343 36.6453 5.7504 36.8725C5.90737 37.0996 6.21879 37.1566 6.44598 36.9996L5.87755 36.1769ZM8.06363 35.882C8.29082 35.725 8.34774 35.4136 8.19078 35.1864C8.03381 34.9592 7.72239 34.9023 7.4952 35.0592L8.06363 35.882ZM9.11284 33.9416C8.88565 34.0985 8.82872 34.41 8.98569 34.6372C9.14266 34.8643 9.45408 34.9213 9.68127 34.7643L9.11284 33.9416ZM11.2989 33.6467C11.5261 33.4897 11.583 33.1783 11.4261 32.9511C11.2691 32.7239 10.9577 32.667 10.7305 32.8239L11.2989 33.6467ZM12.3481 31.7063C12.1209 31.8633 12.064 32.1747 12.221 32.4019C12.378 32.6291 12.6894 32.686 12.9166 32.529L12.3481 31.7063ZM14.5342 31.4114C14.7614 31.2544 14.8183 30.943 14.6614 30.7158C14.5044 30.4886 14.193 30.4317 13.9658 30.5886L14.5342 31.4114ZM15.5834 29.471C15.3562 29.628 15.2993 29.9394 15.4563 30.1666C15.6132 30.3938 15.9247 30.4507 16.1519 30.2937L15.5834 29.471ZM17.7695 29.1761C17.9967 29.0191 18.0536 28.7077 17.8967 28.4805C17.7397 28.2533 17.4283 28.1964 17.2011 28.3533L17.7695 29.1761ZM18.8187 27.2357C18.5915 27.3927 18.5346 27.7041 18.6916 27.9313C18.8485 28.1585 19.16 28.2154 19.3872 28.0584L18.8187 27.2357ZM21.0048 26.9408C21.232 26.7838 21.2889 26.4724 21.132 26.2452C20.975 26.018 20.6636 25.9611 20.4364 26.118L21.0048 26.9408ZM22.054 25.0004C21.8268 25.1574 21.7699 25.4688 21.9269 25.696C22.0838 25.9232 22.3953 25.9801 22.6225 25.8231L22.054 25.0004ZM24.2401 24.7055C24.4673 24.5485 24.5242 24.2371 24.3672 24.0099C24.2103 23.7827 23.8989 23.7258 23.6717 23.8828L24.2401 24.7055ZM25.2893 22.7651C25.0621 22.9221 25.0052 23.2335 25.1622 23.4607C25.3191 23.6879 25.6306 23.7448 25.8577 23.5878L25.2893 22.7651ZM27.4754 22.4702C27.7026 22.3132 27.7595 22.0018 27.6025 21.7746C27.4456 21.5474 27.1342 21.4905 26.907 21.6475L27.4754 22.4702ZM28.5246 20.5298C28.2974 20.6868 28.2405 20.9982 28.3975 21.2254C28.5544 21.4526 28.8659 21.5095 29.093 21.3525L28.5246 20.5298ZM30.7107 20.2349C30.9379 20.0779 30.9948 19.7665 30.8378 19.5393C30.6809 19.3121 30.3695 19.2552 30.1423 19.4122L30.7107 20.2349ZM31.7599 18.2945C31.5327 18.4515 31.4758 18.7629 31.6328 18.9901C31.7897 19.2173 32.1011 19.2742 32.3283 19.1172L31.7599 18.2945ZM33.946 17.9996C34.1732 17.8426 34.2301 17.5312 34.0731 17.304C33.9162 17.0768 33.6047 17.0199 33.3776 17.1769L33.946 17.9996ZM34.9952 16.0592C34.768 16.2162 34.7111 16.5276 34.8681 16.7548C35.025 16.982 35.3364 17.0389 35.5636 16.8819L34.9952 16.0592ZM37.1813 15.7643C37.4085 15.6073 37.4654 15.2959 37.3084 15.0687C37.1515 14.8415 36.84 14.7846 36.6128 14.9416L37.1813 15.7643ZM38.2305 13.8239C38.0033 13.9809 37.9464 14.2923 38.1033 14.5195C38.2603 14.7467 38.5717 14.8036 38.7989 14.6467L38.2305 13.8239ZM40.4166 13.529C40.6438 13.372 40.7007 13.0606 40.5437 12.8334C40.3868 12.6062 40.0753 12.5493 39.8481 12.7063L40.4166 13.529ZM41.4658 11.5886C41.2386 11.7456 41.1817 12.057 41.3386 12.2842C41.4956 12.5114 41.807 12.5683 42.0342 12.4114L41.4658 11.5886ZM43.6519 11.2937C43.8791 11.1367 43.936 10.8253 43.779 10.5981C43.6221 10.3709 43.3106 10.314 43.0834 10.471L43.6519 11.2937ZM44.7011 9.35333C44.4739 9.5103 44.417 9.82172 44.5739 10.0489C44.7309 10.2761 45.0423 10.333 45.2695 10.1761L44.7011 9.35333ZM46.8872 9.05842C47.1144 8.90145 47.1713 8.59003 47.0143 8.36284C46.8573 8.13565 46.5459 8.07872 46.3187 8.23569L46.8872 9.05842ZM47.9364 7.11804C47.7092 7.27501 47.6523 7.58643 47.8092 7.81362C47.9662 8.04081 48.2776 8.09774 48.5048 7.94077L47.9364 7.11804ZM50.1225 6.82312C50.3497 6.66615 50.4066 6.35473 50.2496 6.12754C50.0926 5.90035 49.7812 5.84342 49.554 6.00039L50.1225 6.82312ZM51.1717 4.88274C50.9445 5.03971 50.8876 5.35113 51.0445 5.57833C51.2015 5.80552 51.5129 5.86244 51.7401 5.70547L51.1717 4.88274ZM53.3578 4.58783C53.5849 4.43086 53.6419 4.11944 53.4849 3.89225C53.3279 3.66506 53.0165 3.60813 52.7893 3.7651L53.3578 4.58783ZM54.407 2.64745C54.1798 2.80442 54.1229 3.11584 54.2798 3.34303C54.4368 3.57022 54.7482 3.62715 54.9754 3.47018L54.407 2.64745ZM0.5 40.5L0.784216 40.9114L1.59304 40.3525L1.30882 39.9412L1.02461 39.5298L0.215784 40.0886L0.5 40.5ZM2.92647 38.8235L3.21069 39.2349L4.82833 38.1172L4.54412 37.7059L4.2599 37.2945L2.64225 38.4122L2.92647 38.8235ZM6.16176 36.5882L6.44598 36.9996L8.06363 35.882L7.77941 35.4706L7.4952 35.0592L5.87755 36.1769L6.16176 36.5882ZM9.39706 34.3529L9.68127 34.7643L11.2989 33.6467L11.0147 33.2353L10.7305 32.8239L9.11284 33.9416L9.39706 34.3529ZM12.6324 32.1176L12.9166 32.529L14.5342 31.4114L14.25 31L13.9658 30.5886L12.3481 31.7063L12.6324 32.1176ZM15.8676 29.8824L16.1519 30.2937L17.7695 29.1761L17.4853 28.7647L17.2011 28.3533L15.5834 29.471L15.8676 29.8824ZM19.1029 27.6471L19.3872 28.0584L21.0048 26.9408L20.7206 26.5294L20.4364 26.118L18.8187 27.2357L19.1029 27.6471ZM22.3382 25.4118L22.6225 25.8231L24.2401 24.7055L23.9559 24.2941L23.6717 23.8828L22.054 25.0004L22.3382 25.4118ZM25.5735 23.1765L25.8577 23.5878L27.4754 22.4702L27.1912 22.0588L26.907 21.6475L25.2893 22.7651L25.5735 23.1765ZM28.8088 20.9412L29.093 21.3525L30.7107 20.2349L30.4265 19.8235L30.1423 19.4122L28.5246 20.5298L28.8088 20.9412ZM32.0441 18.7059L32.3283 19.1172L33.946 17.9996L33.6618 17.5882L33.3776 17.1769L31.7599 18.2945L32.0441 18.7059ZM35.2794 16.4706L35.5636 16.8819L37.1813 15.7643L36.8971 15.3529L36.6128 14.9416L34.9952 16.0592L35.2794 16.4706ZM38.5147 14.2353L38.7989 14.6467L40.4166 13.529L40.1324 13.1176L39.8481 12.7063L38.2305 13.8239L38.5147 14.2353ZM41.75 12L42.0342 12.4114L43.6519 11.2937L43.3677 10.8823L43.0834 10.471L41.4658 11.5886L41.75 12ZM44.9853 9.7647L45.2695 10.1761L46.8872 9.05842L46.6029 8.64705L46.3187 8.23569L44.7011 9.35333L44.9853 9.7647ZM48.2206 7.52941L48.5048 7.94077L50.1225 6.82312L49.8382 6.41176L49.554 6.00039L47.9364 7.11804L48.2206 7.52941ZM51.4559 5.29411L51.7401 5.70547L53.3578 4.58783L53.0735 4.17646L52.7893 3.7651L51.1717 4.88274L51.4559 5.29411ZM54.6912 3.05882L54.9754 3.47018L55.7842 2.91137L55.5 2.5L55.2158 2.08863L54.407 2.64745L54.6912 3.05882Z" fill="white"/>
</svg>
