<svg width="74" height="13" viewBox="0 0 74 13" fill="none" xmlns="http://www.w3.org/2000/svg">
<path d="M73.8609 2.61449L70.6145 0.139106L68.1391 3.38551L71.3855 5.86089L73.8609 2.61449ZM1.54594 12.8636C1.81961 12.8267 2.01157 12.575 1.97469 12.3013C1.93781 12.0276 1.68606 11.8357 1.41239 11.8725L1.54594 12.8636ZM3.37073 11.6086C3.09706 11.6455 2.9051 11.8973 2.94198 12.1709C2.97886 12.4446 3.2306 12.6366 3.50427 12.5997L3.37073 11.6086ZM5.46261 12.3358C5.73627 12.2989 5.92823 12.0472 5.89135 11.7735C5.85448 11.4998 5.60273 11.3079 5.32906 11.3448L5.46261 12.3358ZM7.28739 11.0809C7.01373 11.1177 6.82177 11.3695 6.85865 11.6432C6.89552 11.9168 7.14727 12.1088 7.42094 12.0719L7.28739 11.0809ZM9.37927 11.808C9.65294 11.7711 9.8449 11.5194 9.80802 11.2457C9.77114 10.9721 9.5194 10.7801 9.24573 10.817L9.37927 11.808ZM11.2041 10.5531C10.9304 10.59 10.7384 10.8417 10.7753 11.1154C10.8122 11.3891 11.0639 11.581 11.3376 11.5441L11.2041 10.5531ZM13.2959 11.2802C13.5696 11.2434 13.7616 10.9916 13.7247 10.7179C13.6878 10.4443 13.4361 10.2523 13.1624 10.2892L13.2959 11.2802ZM15.1207 10.0253C14.8471 10.0622 14.6551 10.3139 14.692 10.5876C14.7289 10.8613 14.9806 11.0532 15.2543 11.0164L15.1207 10.0253ZM17.2126 10.7525C17.4863 10.7156 17.6782 10.4638 17.6414 10.1902C17.6045 9.9165 17.3527 9.72455 17.0791 9.76142L17.2126 10.7525ZM19.0374 9.49753C18.7637 9.53441 18.5718 9.78616 18.6086 10.0598C18.6455 10.3335 18.8973 10.5255 19.1709 10.4886L19.0374 9.49753ZM21.1293 10.2247C21.4029 10.1878 21.5949 9.93606 21.558 9.66239C21.5211 9.38873 21.2694 9.19677 20.9957 9.23365L21.1293 10.2247ZM22.9541 8.96976C22.6804 9.00663 22.4884 9.25838 22.5253 9.53205C22.5622 9.80572 22.8139 9.99768 23.0876 9.9608L22.9541 8.96976ZM25.0459 9.69691C25.3196 9.66003 25.5116 9.40829 25.4747 9.13462C25.4378 8.86095 25.1861 8.66899 24.9124 8.70587L25.0459 9.69691ZM26.8707 8.44198C26.5971 8.47886 26.4051 8.7306 26.442 9.00427C26.4789 9.27794 26.7306 9.4699 27.0043 9.43302L26.8707 8.44198ZM28.9626 9.16913C29.2363 9.13226 29.4282 8.88051 29.3913 8.60684C29.3545 8.33317 29.1027 8.14121 28.8291 8.17809L28.9626 9.16913ZM30.7874 7.9142C30.5137 7.95108 30.3218 8.20283 30.3586 8.4765C30.3955 8.75016 30.6473 8.94212 30.9209 8.90524L30.7874 7.9142ZM32.8793 8.64136C33.1529 8.60448 33.3449 8.35273 33.308 8.07906C33.2711 7.80539 33.0194 7.61344 32.7457 7.65031L32.8793 8.64136ZM34.7041 7.38642C34.4304 7.4233 34.2384 7.67505 34.2753 7.94872C34.3122 8.22239 34.5639 8.41434 34.8376 8.37747L34.7041 7.38642ZM36.7959 8.11358C37.0696 8.0767 37.2616 7.82495 37.2247 7.55128C37.1878 7.27762 36.9361 7.08566 36.6624 7.12254L36.7959 8.11358ZM38.6207 6.85865C38.3471 6.89552 38.1551 7.14727 38.192 7.42094C38.2288 7.69461 38.4806 7.88657 38.7543 7.84969L38.6207 6.85865ZM40.7126 7.5858C40.9863 7.54892 41.1782 7.29717 41.1413 7.02351C41.1045 6.74984 40.8527 6.55788 40.5791 6.59476L40.7126 7.5858ZM42.5374 6.33087C42.2637 6.36775 42.0718 6.61949 42.1086 6.89316C42.1455 7.16683 42.3973 7.35879 42.6709 7.32191L42.5374 6.33087ZM44.6293 7.05802C44.9029 7.02115 45.0949 6.7694 45.058 6.49573C45.0211 6.22206 44.7694 6.0301 44.4957 6.06698L44.6293 7.05802ZM46.454 5.80309C46.1804 5.83997 45.9884 6.09172 46.0253 6.36539C46.0622 6.63905 46.3139 6.83101 46.5876 6.79413L46.454 5.80309ZM48.5459 6.53025C48.8196 6.49337 49.0116 6.24162 48.9747 5.96795C48.9378 5.69428 48.6861 5.50232 48.4124 5.5392L48.5459 6.53025ZM50.3707 5.27531C50.097 5.31219 49.9051 5.56394 49.942 5.83761C49.9788 6.11128 50.2306 6.30323 50.5043 6.26636L50.3707 5.27531ZM52.4626 6.00247C52.7363 5.96559 52.9282 5.71384 52.8913 5.44017C52.8545 5.1665 52.6027 4.97455 52.329 5.01142L52.4626 6.00247ZM54.2874 4.74754C54.0137 4.78441 53.8218 5.03616 53.8586 5.30983C53.8955 5.5835 54.1473 5.77546 54.4209 5.73858L54.2874 4.74754ZM56.3793 5.47469C56.6529 5.43781 56.8449 5.18607 56.808 4.9124C56.7711 4.63873 56.5194 4.44677 56.2457 4.48365L56.3793 5.47469ZM58.204 4.21976C57.9304 4.25664 57.7384 4.50838 57.7753 4.78205C57.8122 5.05572 58.0639 5.24768 58.3376 5.2108L58.204 4.21976ZM60.2959 4.94691C60.5696 4.91004 60.7615 4.65829 60.7247 4.38462C60.6878 4.11095 60.436 3.91899 60.1624 3.95587L60.2959 4.94691ZM62.1207 3.69198C61.847 3.72886 61.6551 3.98061 61.692 4.25427C61.7288 4.52794 61.9806 4.7199 62.2543 4.68302L62.1207 3.69198ZM64.2126 4.41913C64.4863 4.38226 64.6782 4.13051 64.6413 3.85684C64.6045 3.58317 64.3527 3.39121 64.079 3.42809L64.2126 4.41913ZM66.0374 3.1642C65.7637 3.20108 65.5718 3.45283 65.6086 3.7265C65.6455 4.00016 65.8973 4.19212 66.1709 4.15525L66.0374 3.1642ZM68.1293 3.89136C68.4029 3.85448 68.5949 3.60273 68.558 3.32906C68.5211 3.05539 68.2694 2.86344 67.9957 2.90031L68.1293 3.89136ZM69.9541 2.63642C69.6804 2.6733 69.4884 2.92505 69.5253 3.19872C69.5622 3.47239 69.8139 3.66434 70.0876 3.62747L69.9541 2.63642ZM0.5 12.5L0.566772 12.9955L1.54594 12.8636L1.47917 12.3681L1.41239 11.8725L0.433228 12.0045L0.5 12.5ZM3.4375 12.1042L3.50427 12.5997L5.46261 12.3358L5.39583 11.8403L5.32906 11.3448L3.37073 11.6086L3.4375 12.1042ZM7.35417 11.5764L7.42094 12.0719L9.37927 11.808L9.3125 11.3125L9.24573 10.817L7.28739 11.0809L7.35417 11.5764ZM11.2708 11.0486L11.3376 11.5441L13.2959 11.2802L13.2292 10.7847L13.1624 10.2892L11.2041 10.5531L11.2708 11.0486ZM15.1875 10.5208L15.2543 11.0164L17.2126 10.7525L17.1458 10.2569L17.0791 9.76142L15.1207 10.0253L15.1875 10.5208ZM19.1042 9.99306L19.1709 10.4886L21.1293 10.2247L21.0625 9.72917L20.9957 9.23365L19.0374 9.49753L19.1042 9.99306ZM23.0208 9.46528L23.0876 9.9608L25.0459 9.69691L24.9792 9.20139L24.9124 8.70587L22.9541 8.96976L23.0208 9.46528ZM26.9375 8.9375L27.0043 9.43302L28.9626 9.16913L28.8958 8.67361L28.8291 8.17809L26.8707 8.44198L26.9375 8.9375ZM30.8542 8.40972L30.9209 8.90524L32.8793 8.64136L32.8125 8.14583L32.7457 7.65031L30.7874 7.9142L30.8542 8.40972ZM34.7708 7.88195L34.8376 8.37747L36.7959 8.11358L36.7292 7.61806L36.6624 7.12254L34.7041 7.38642L34.7708 7.88195ZM38.6875 7.35417L38.7543 7.84969L40.7126 7.5858L40.6458 7.09028L40.5791 6.59476L38.6207 6.85865L38.6875 7.35417ZM42.6042 6.82639L42.6709 7.32191L44.6293 7.05802L44.5625 6.5625L44.4957 6.06698L42.5374 6.33087L42.6042 6.82639ZM46.5208 6.29861L46.5876 6.79413L48.5459 6.53025L48.4792 6.03472L48.4124 5.5392L46.454 5.80309L46.5208 6.29861ZM50.4375 5.77084L50.5043 6.26636L52.4626 6.00247L52.3958 5.50695L52.329 5.01142L50.3707 5.27531L50.4375 5.77084ZM54.3542 5.24306L54.4209 5.73858L56.3793 5.47469L56.3125 4.97917L56.2457 4.48365L54.2874 4.74754L54.3542 5.24306ZM58.2708 4.71528L58.3376 5.2108L60.2959 4.94691L60.2291 4.45139L60.1624 3.95587L58.204 4.21976L58.2708 4.71528ZM62.1875 4.1875L62.2543 4.68302L64.2126 4.41913L64.1458 3.92361L64.079 3.42809L62.1207 3.69198L62.1875 4.1875ZM66.1042 3.65972L66.1709 4.15525L68.1293 3.89136L68.0625 3.39583L67.9957 2.90031L66.0374 3.1642L66.1042 3.65972ZM70.0208 3.13195L70.0876 3.62747L71.0668 3.49552L71 3L70.9332 2.50448L69.9541 2.63642L70.0208 3.13195Z" fill="white"/>
</svg>
