<svg width="6" height="42" viewBox="0 0 6 42" fill="none" xmlns="http://www.w3.org/2000/svg">
<path d="M3 0.113249L0.113249 3L3 5.88675L5.88675 3L3 0.113249ZM2.5 3.975C2.5 4.25114 2.72386 4.475 3 4.475C3.27614 4.475 3.5 4.25114 3.5 3.975L2.5 3.975ZM3.5 5.925C3.5 5.64886 3.27614 5.425 3 5.425C2.72386 5.425 2.5 5.64886 2.5 5.925L3.5 5.925ZM2.5 7.875C2.5 8.15114 2.72386 8.375 3 8.375C3.27614 8.375 3.5 8.15114 3.5 7.875L2.5 7.875ZM3.5 9.825C3.5 9.54886 3.27614 9.325 3 9.325C2.72386 9.325 2.5 9.54886 2.5 9.825L3.5 9.825ZM2.5 11.775C2.5 12.0511 2.72386 12.275 3 12.275C3.27614 12.275 3.5 12.0511 3.5 11.775L2.5 11.775ZM3.5 13.725C3.5 13.4489 3.27614 13.225 3 13.225C2.72386 13.225 2.5 13.4489 2.5 13.725L3.5 13.725ZM2.5 15.675C2.5 15.9511 2.72386 16.175 3 16.175C3.27614 16.175 3.5 15.9511 3.5 15.675L2.5 15.675ZM3.5 17.625C3.5 17.3489 3.27614 17.125 3 17.125C2.72386 17.125 2.5 17.3489 2.5 17.625L3.5 17.625ZM2.5 19.575C2.5 19.8511 2.72386 20.075 3 20.075C3.27614 20.075 3.5 19.8511 3.5 19.575L2.5 19.575ZM3.5 21.525C3.5 21.2489 3.27614 21.025 3 21.025C2.72386 21.025 2.5 21.2489 2.5 21.525L3.5 21.525ZM2.5 23.475C2.5 23.7511 2.72386 23.975 3 23.975C3.27614 23.975 3.5 23.7511 3.5 23.475L2.5 23.475ZM3.5 25.425C3.5 25.1489 3.27614 24.925 3 24.925C2.72386 24.925 2.5 25.1489 2.5 25.425L3.5 25.425ZM2.5 27.375C2.5 27.6511 2.72386 27.875 3 27.875C3.27614 27.875 3.5 27.6511 3.5 27.375L2.5 27.375ZM3.5 29.325C3.5 29.0489 3.27614 28.825 3 28.825C2.72386 28.825 2.5 29.0489 2.5 29.325L3.5 29.325ZM2.5 31.275C2.5 31.5511 2.72386 31.775 3 31.775C3.27614 31.775 3.5 31.5511 3.5 31.275L2.5 31.275ZM3.5 33.225C3.5 32.9489 3.27614 32.725 3 32.725C2.72386 32.725 2.5 32.9489 2.5 33.225L3.5 33.225ZM2.5 35.175C2.5 35.4511 2.72386 35.675 3 35.675C3.27614 35.675 3.5 35.4511 3.5 35.175L2.5 35.175ZM3.5 37.125C3.5 36.8489 3.27614 36.625 3 36.625C2.72386 36.625 2.5 36.8489 2.5 37.125L3.5 37.125ZM2.5 39.075C2.5 39.3512 2.72386 39.575 3 39.575C3.27614 39.575 3.5 39.3512 3.5 39.075L2.5 39.075ZM3.5 41.025C3.5 40.7489 3.27614 40.525 3 40.525C2.72386 40.525 2.5 40.7489 2.5 41.025L3.5 41.025ZM3 3L2.5 3L2.5 3.975L3 3.975L3.5 3.975L3.5 3L3 3ZM3 5.925L2.5 5.925L2.5 7.875L3 7.875L3.5 7.875L3.5 5.925L3 5.925ZM3 9.825L2.5 9.825L2.5 11.775L3 11.775L3.5 11.775L3.5 9.825L3 9.825ZM3 13.725L2.5 13.725L2.5 15.675L3 15.675L3.5 15.675L3.5 13.725L3 13.725ZM3 17.625L2.5 17.625L2.5 19.575L3 19.575L3.5 19.575L3.5 17.625L3 17.625ZM3 21.525L2.5 21.525L2.5 23.475L3 23.475L3.5 23.475L3.5 21.525L3 21.525ZM3 25.425L2.5 25.425L2.5 27.375L3 27.375L3.5 27.375L3.5 25.425L3 25.425ZM3 29.325L2.5 29.325L2.5 31.275L3 31.275L3.5 31.275L3.5 29.325L3 29.325ZM3 33.225L2.5 33.225L2.5 35.175L3 35.175L3.5 35.175L3.5 33.225L3 33.225ZM3 37.125L2.5 37.125L2.5 39.075L3 39.075L3.5 39.075L3.5 37.125L3 37.125ZM3 41.025L2.5 41.025L2.5 42L3 42L3.5 42L3.5 41.025L3 41.025Z" fill="white"/>
</svg>
