<svg width="59" height="14" viewBox="0 0 59 14" fill="none" xmlns="http://www.w3.org/2000/svg">
<path d="M0.65613 3.00428L3.00428 6.34387L6.34387 3.99572L3.99572 0.65613L0.65613 3.00428ZM4.38735 4.16222C4.65939 4.20964 4.91837 4.02754 4.96579 3.7555C5.01321 3.48346 4.83112 3.22449 4.55908 3.17707L4.38735 4.16222ZM6.5055 3.51636C6.23346 3.46894 5.97449 3.65103 5.92707 3.92307C5.87965 4.19511 6.06174 4.45408 6.33378 4.5015L6.5055 3.51636ZM8.28021 4.84079C8.55225 4.88821 8.81122 4.70611 8.85864 4.43407C8.90606 4.16203 8.72397 3.90306 8.45193 3.85564L8.28021 4.84079ZM10.3984 4.19493C10.1263 4.14751 9.86735 4.3296 9.81993 4.60164C9.77251 4.87368 9.9546 5.13265 10.2266 5.18007L10.3984 4.19493ZM12.1731 5.51936C12.4451 5.56678 12.7041 5.38469 12.7515 5.11265C12.7989 4.8406 12.6168 4.58163 12.3448 4.53421L12.1731 5.51936ZM14.2912 4.8735C14.0192 4.82608 13.7602 5.00817 13.7128 5.28021C13.6654 5.55225 13.8475 5.81122 14.1195 5.85864L14.2912 4.8735ZM16.0659 6.19793C16.338 6.24535 16.5969 6.06326 16.6444 5.79122C16.6918 5.51918 16.5097 5.2602 16.2376 5.21278L16.0659 6.19793ZM18.1841 5.55207C17.912 5.50465 17.6531 5.68674 17.6056 5.95878C17.5582 6.23082 17.7403 6.48979 18.0123 6.53721L18.1841 5.55207ZM19.9588 6.8765C20.2308 6.92392 20.4898 6.74183 20.5372 6.46979C20.5846 6.19775 20.4025 5.93877 20.1305 5.89135L19.9588 6.8765ZM22.0769 6.23064C21.8049 6.18322 21.5459 6.36531 21.4985 6.63735C21.4511 6.90939 21.6332 7.16836 21.9052 7.21578L22.0769 6.23064ZM23.8516 7.55507C24.1237 7.60249 24.3826 7.4204 24.4301 7.14836C24.4775 6.87632 24.2954 6.61734 24.0234 6.56992L23.8516 7.55507ZM25.9698 6.90921C25.6977 6.86179 25.4388 7.04388 25.3913 7.31592C25.3439 7.58796 25.526 7.84693 25.7981 7.89435L25.9698 6.90921ZM27.7445 8.23364C28.0165 8.28106 28.2755 8.09897 28.3229 7.82693C28.3703 7.55489 28.1883 7.29591 27.9162 7.24849L27.7445 8.23364ZM29.8626 7.58778C29.5906 7.54036 29.3316 7.72245 29.2842 7.99449C29.2368 8.26653 29.4189 8.5255 29.6909 8.57292L29.8626 7.58778ZM31.6373 8.91221C31.9094 8.95963 32.1684 8.77754 32.2158 8.5055C32.2632 8.23346 32.0811 7.97448 31.8091 7.92706L31.6373 8.91221ZM33.7555 8.26635C33.4834 8.21893 33.2245 8.40102 33.1771 8.67306C33.1296 8.9451 33.3117 9.20407 33.5838 9.25149L33.7555 8.26635ZM35.5302 9.59078C35.8022 9.6382 36.0612 9.45611 36.1086 9.18407C36.156 8.91203 35.974 8.65305 35.7019 8.60563L35.5302 9.59078ZM37.6483 8.94492C37.3763 8.8975 37.1173 9.07959 37.0699 9.35163C37.0225 9.62367 37.2046 9.88264 37.4766 9.93006L37.6483 8.94492ZM39.423 10.2693C39.6951 10.3168 39.9541 10.1347 40.0015 9.86264C40.0489 9.5906 39.8668 9.33162 39.5948 9.2842L39.423 10.2693ZM41.5412 9.62349C41.2692 9.57607 41.0102 9.75816 40.9628 10.0302C40.9153 10.3022 41.0974 10.5612 41.3695 10.6086L41.5412 9.62349ZM43.3159 10.9479C43.5879 10.9953 43.8469 10.8132 43.8943 10.5412C43.9418 10.2692 43.7597 10.0102 43.4876 9.96278L43.3159 10.9479ZM45.4341 10.3021C45.162 10.2546 44.903 10.4367 44.8556 10.7088C44.8082 10.9808 44.9903 11.2398 45.2623 11.2872L45.4341 10.3021ZM47.2088 11.6265C47.4808 11.6739 47.7398 11.4918 47.7872 11.2198C47.8346 10.9477 47.6525 10.6888 47.3805 10.6413L47.2088 11.6265ZM49.3269 10.9806C49.0549 10.9332 48.7959 11.1153 48.7485 11.3873C48.7011 11.6594 48.8831 11.9184 49.1552 11.9658L49.3269 10.9806ZM51.1016 12.3051C51.3737 12.3525 51.6326 12.1704 51.68 11.8984C51.7275 11.6263 51.5454 11.3673 51.2733 11.3199L51.1016 12.3051ZM53.2198 11.6592C52.9477 11.6118 52.6887 11.7939 52.6413 12.0659C52.5939 12.338 52.776 12.5969 53.048 12.6443L53.2198 11.6592ZM54.9945 12.9836C55.2665 13.031 55.5255 12.849 55.5729 12.5769C55.6203 12.3049 55.4382 12.0459 55.1662 11.9985L54.9945 12.9836ZM57.1126 12.3378C56.8406 12.2904 56.5816 12.4724 56.5342 12.7445C56.4868 13.0165 56.6689 13.2755 56.9409 13.3229L57.1126 12.3378ZM3.5 3.5L3.41414 3.99257L4.38735 4.16222L4.47321 3.66964L4.55908 3.17707L3.58586 3.00743L3.5 3.5ZM6.41964 4.00893L6.33378 4.5015L8.28021 4.84079L8.36607 4.34821L8.45193 3.85564L6.5055 3.51636L6.41964 4.00893ZM10.3125 4.6875L10.2266 5.18007L12.1731 5.51936L12.2589 5.02678L12.3448 4.53421L10.3984 4.19493L10.3125 4.6875ZM14.2054 5.36607L14.1195 5.85864L16.0659 6.19793L16.1518 5.70535L16.2376 5.21278L14.2912 4.8735L14.2054 5.36607ZM18.0982 6.04464L18.0123 6.53721L19.9588 6.8765L20.0446 6.38393L20.1305 5.89135L18.1841 5.55207L18.0982 6.04464ZM21.9911 6.72321L21.9052 7.21578L23.8516 7.55507L23.9375 7.0625L24.0234 6.56992L22.0769 6.23064L21.9911 6.72321ZM25.8839 7.40178L25.7981 7.89435L27.7445 8.23364L27.8303 7.74107L27.9162 7.24849L25.9698 6.90921L25.8839 7.40178ZM29.7768 8.08035L29.6909 8.57292L31.6373 8.91221L31.7232 8.41964L31.8091 7.92706L29.8626 7.58778L29.7768 8.08035ZM33.6696 8.75892L33.5838 9.25149L35.5302 9.59078L35.6161 9.09821L35.7019 8.60563L33.7555 8.26635L33.6696 8.75892ZM37.5625 9.43749L37.4766 9.93006L39.423 10.2693L39.5089 9.77678L39.5948 9.2842L37.6483 8.94492L37.5625 9.43749ZM41.4553 10.1161L41.3695 10.6086L43.3159 10.9479L43.4018 10.4553L43.4876 9.96278L41.5412 9.62349L41.4553 10.1161ZM45.3482 10.7946L45.2623 11.2872L47.2088 11.6265L47.2946 11.1339L47.3805 10.6413L45.4341 10.3021L45.3482 10.7946ZM49.241 11.4732L49.1552 11.9658L51.1016 12.3051L51.1875 11.8125L51.2733 11.3199L49.3269 10.9806L49.241 11.4732ZM53.1339 12.1518L53.048 12.6443L54.9945 12.9836L55.0803 12.4911L55.1662 11.9985L53.2198 11.6592L53.1339 12.1518ZM57.0268 12.8303L56.9409 13.3229L57.9141 13.4926L58 13L58.0858 12.5074L57.1126 12.3378L57.0268 12.8303Z" fill="white"/>
</svg>
