<svg width="7" height="33" viewBox="0 0 7 33" fill="none" xmlns="http://www.w3.org/2000/svg">
<path d="M3.5 0.613249L0.613249 3.5L3.5 6.38675L6.38675 3.5L3.5 0.613249ZM3 4.53571C3 4.81186 3.22386 5.03571 3.5 5.03571C3.77614 5.03571 4 4.81186 4 4.53571H3ZM4 6.60714C4 6.331 3.77614 6.10714 3.5 6.10714C3.22386 6.10714 3 6.331 3 6.60714H4ZM3 8.67857C3 8.95471 3.22386 9.17857 3.5 9.17857C3.77614 9.17857 4 8.95471 4 8.67857H3ZM4 10.75C4 10.4739 3.77614 10.25 3.5 10.25C3.22386 10.25 3 10.4739 3 10.75H4ZM3 12.8214C3 13.0976 3.22386 13.3214 3.5 13.3214C3.77614 13.3214 4 13.0976 4 12.8214H3ZM4 14.8929C4 14.6167 3.77614 14.3929 3.5 14.3929C3.22386 14.3929 3 14.6167 3 14.8929H4ZM3 16.9643C3 17.2404 3.22386 17.4643 3.5 17.4643C3.77614 17.4643 4 17.2404 4 16.9643H3ZM4 19.0357C4 18.7596 3.77614 18.5357 3.5 18.5357C3.22386 18.5357 3 18.7596 3 19.0357H4ZM3 21.1071C3 21.3833 3.22386 21.6071 3.5 21.6071C3.77614 21.6071 4 21.3833 4 21.1071H3ZM4 23.1786C4 22.9024 3.77614 22.6786 3.5 22.6786C3.22386 22.6786 3 22.9024 3 23.1786H4ZM3 25.25C3 25.5261 3.22386 25.75 3.5 25.75C3.77614 25.75 4 25.5261 4 25.25H3ZM4 27.3214C4 27.0453 3.77614 26.8214 3.5 26.8214C3.22386 26.8214 3 27.0453 3 27.3214H4ZM3 29.3929C3 29.669 3.22386 29.8929 3.5 29.8929C3.77614 29.8929 4 29.669 4 29.3929H3ZM4 31.4643C4 31.1881 3.77614 30.9643 3.5 30.9643C3.22386 30.9643 3 31.1881 3 31.4643H4ZM3.5 3.5H3V4.53571H3.5H4V3.5H3.5ZM3.5 6.60714H3V8.67857H3.5H4V6.60714H3.5ZM3.5 10.75H3V12.8214H3.5H4V10.75H3.5ZM3.5 14.8929H3V16.9643H3.5H4V14.8929H3.5ZM3.5 19.0357H3V21.1071H3.5H4V19.0357H3.5ZM3.5 23.1786H3V25.25H3.5H4V23.1786H3.5ZM3.5 27.3214H3V29.3929H3.5H4V27.3214H3.5ZM3.5 31.4643H3V32.5H3.5H4V31.4643H3.5Z" fill="white"/>
</svg>
