<svg width="68" height="35" viewBox="0 0 68 35" fill="none" xmlns="http://www.w3.org/2000/svg">
<path d="M0.608952 1.38253L1.38253 5.39105L5.39105 4.61747L4.61747 0.608952L0.608952 1.38253ZM3.56985 3.98914C3.79857 4.14387 4.10942 4.08388 4.26414 3.85515C4.41887 3.62643 4.35888 3.31558 4.13015 3.16086L3.56985 3.98914ZM5.83015 4.31086C5.60143 4.15613 5.29058 4.21612 5.13586 4.44485C4.98113 4.67357 5.04112 4.98442 5.26985 5.13914L5.83015 4.31086ZM6.96985 6.28914C7.19857 6.44387 7.50942 6.38388 7.66414 6.15515C7.81887 5.92643 7.75888 5.61558 7.53015 5.46086L6.96985 6.28914ZM9.23015 6.61086C9.00143 6.45613 8.69058 6.51612 8.53586 6.74485C8.38113 6.97357 8.44112 7.28442 8.66985 7.43914L9.23015 6.61086ZM10.3698 8.58914C10.5986 8.74387 10.9094 8.68388 11.0641 8.45515C11.2189 8.22643 11.1589 7.91558 10.9302 7.76086L10.3698 8.58914ZM12.6302 8.91086C12.4014 8.75613 12.0906 8.81612 11.9359 9.04485C11.7811 9.27357 11.8411 9.58442 12.0698 9.73914L12.6302 8.91086ZM13.7698 10.8891C13.9986 11.0439 14.3094 10.9839 14.4641 10.7552C14.6189 10.5264 14.5589 10.2156 14.3302 10.0609L13.7698 10.8891ZM16.0302 11.2109C15.8014 11.0561 15.4906 11.1161 15.3359 11.3448C15.1811 11.5736 15.2411 11.8844 15.4698 12.0391L16.0302 11.2109ZM17.1698 13.1891C17.3986 13.3439 17.7094 13.2839 17.8641 13.0552C18.0189 12.8264 17.9589 12.5156 17.7302 12.3609L17.1698 13.1891ZM19.4302 13.5109C19.2014 13.3561 18.8906 13.4161 18.7359 13.6448C18.5811 13.8736 18.6411 14.1844 18.8698 14.3391L19.4302 13.5109ZM20.5698 15.4891C20.7986 15.6439 21.1094 15.5839 21.2641 15.3552C21.4189 15.1264 21.3589 14.8156 21.1302 14.6609L20.5698 15.4891ZM22.8302 15.8109C22.6014 15.6561 22.2906 15.7161 22.1359 15.9448C21.9811 16.1736 22.0411 16.4844 22.2698 16.6391L22.8302 15.8109ZM23.9698 17.7891C24.1986 17.9439 24.5094 17.8839 24.6641 17.6552C24.8189 17.4264 24.7589 17.1156 24.5302 16.9609L23.9698 17.7891ZM26.2302 18.1109C26.0014 17.9561 25.6906 18.0161 25.5359 18.2448C25.3811 18.4736 25.4411 18.7844 25.6698 18.9391L26.2302 18.1109ZM27.3698 20.0891C27.5986 20.2439 27.9094 20.1839 28.0641 19.9552C28.2189 19.7264 28.1589 19.4156 27.9302 19.2609L27.3698 20.0891ZM29.6302 20.4109C29.4014 20.2561 29.0906 20.3161 28.9359 20.5448C28.7811 20.7736 28.8411 21.0844 29.0698 21.2391L29.6302 20.4109ZM30.7698 22.3891C30.9986 22.5439 31.3094 22.4839 31.4641 22.2552C31.6189 22.0264 31.5589 21.7156 31.3302 21.5609L30.7698 22.3891ZM33.0302 22.7109C32.8014 22.5561 32.4906 22.6161 32.3359 22.8448C32.1811 23.0736 32.2411 23.3844 32.4698 23.5391L33.0302 22.7109ZM34.1698 24.6891C34.3986 24.8439 34.7094 24.7839 34.8641 24.5552C35.0189 24.3264 34.9589 24.0156 34.7301 23.8609L34.1698 24.6891ZM36.4301 25.0109C36.2014 24.8561 35.8906 24.9161 35.7359 25.1448C35.5811 25.3736 35.6411 25.6844 35.8698 25.8391L36.4301 25.0109ZM37.5697 26.9891C37.7985 27.1439 38.1093 27.0839 38.264 26.8552C38.4188 26.6264 38.3588 26.3156 38.13 26.1609L37.5697 26.9891ZM39.8301 27.3109C39.6013 27.1561 39.2905 27.2161 39.1358 27.4448C38.981 27.6736 39.041 27.9844 39.2697 28.1391L39.8301 27.3109ZM40.9697 29.2891C41.1985 29.4439 41.5093 29.3839 41.664 29.1552C41.8188 28.9264 41.7588 28.6156 41.53 28.4609L40.9697 29.2891ZM43.2301 29.6109C43.0013 29.4561 42.6905 29.5161 42.5358 29.7448C42.381 29.9736 42.441 30.2844 42.6697 30.4391L43.2301 29.6109ZM44.3697 31.5891C44.5985 31.7439 44.9093 31.6839 45.064 31.4552C45.2188 31.2264 45.1588 30.9156 44.93 30.7609L44.3697 31.5891ZM46.6301 31.9109C46.4013 31.7561 46.0905 31.8161 45.9358 32.0448C45.781 32.2736 45.841 32.5844 46.0697 32.7391L46.6301 31.9109ZM47.7697 33.8891C47.9985 34.0439 48.3093 33.9839 48.464 33.7552C48.6188 33.5264 48.5588 33.2156 48.33 33.0609L47.7697 33.8891ZM50.0301 34.2109C49.8013 34.0561 49.4905 34.1161 49.3358 34.3448C49.181 34.5736 49.241 34.8844 49.4697 35.0391L50.0301 34.2109ZM3 3L2.71985 3.41414L3.56985 3.98914L3.85 3.575L4.13015 3.16086L3.28015 2.58586L3 3ZM5.55 4.725L5.26985 5.13914L6.96985 6.28914L7.25 5.875L7.53015 5.46086L5.83015 4.31086L5.55 4.725ZM8.95 7.025L8.66985 7.43914L10.3698 8.58914L10.65 8.175L10.9302 7.76086L9.23015 6.61086L8.95 7.025ZM12.35 9.325L12.0698 9.73914L13.7698 10.8891L14.05 10.475L14.3302 10.0609L12.6302 8.91086L12.35 9.325ZM15.75 11.625L15.4698 12.0391L17.1698 13.1891L17.45 12.775L17.7302 12.3609L16.0302 11.2109L15.75 11.625ZM19.15 13.925L18.8698 14.3391L20.5698 15.4891L20.85 15.075L21.1302 14.6609L19.4302 13.5109L19.15 13.925ZM22.55 16.225L22.2698 16.6391L23.9698 17.7891L24.25 17.375L24.5302 16.9609L22.8302 15.8109L22.55 16.225ZM25.95 18.525L25.6698 18.9391L27.3698 20.0891L27.65 19.675L27.9302 19.2609L26.2302 18.1109L25.95 18.525ZM29.35 20.825L29.0698 21.2391L30.7698 22.3891L31.05 21.975L31.3302 21.5609L29.6302 20.4109L29.35 20.825ZM32.75 23.125L32.4698 23.5391L34.1698 24.6891L34.45 24.275L34.7301 23.8609L33.0302 22.7109L32.75 23.125ZM36.15 25.425L35.8698 25.8391L37.5697 26.9891L37.85 26.575L38.13 26.1609L36.4301 25.0109L36.15 25.425ZM39.55 27.725L39.2697 28.1391L40.9697 29.2891L41.25 28.875L41.53 28.4609L39.8301 27.3109L39.55 27.725ZM42.95 30.025L42.6697 30.4391L44.3697 31.5891L44.65 31.175L44.93 30.7609L43.2301 29.6109L42.95 30.025ZM46.35 32.325L46.0697 32.7391L47.7697 33.8891L48.05 33.475L48.33 33.0609L46.6301 31.9109L46.35 32.325ZM49.75 34.625L49.4697 35.0391L50.1572 35.5391L50.4375 35.125L50.7177 34.7109L50.0301 34.2109L49.75 34.625Z" fill="white"/>
</svg>
