<svg width="6" height="31" viewBox="0 0 6 31" fill="none" xmlns="http://www.w3.org/2000/svg">
<path d="M2.99999 0.113249L0.113249 3.00001L3.00001 5.88675L5.88675 2.99999L2.99999 0.113249ZM2.5 3.98214C2.5 4.25829 2.72386 4.48214 3.00001 4.48214C3.27615 4.48214 3.5 4.25828 3.5 3.98214L2.5 3.98214ZM3.50001 5.94643C3.50001 5.67028 3.27615 5.44643 3.00001 5.44643C2.72387 5.44643 2.50001 5.67029 2.50001 5.94643L3.50001 5.94643ZM2.50002 7.91072C2.50002 8.18686 2.72388 8.41072 3.00002 8.41071C3.27616 8.41071 3.50002 8.18685 3.50002 7.91071L2.50002 7.91072ZM3.50002 9.875C3.50002 9.59886 3.27616 9.375 3.00002 9.375C2.72388 9.375 2.50002 9.59886 2.50002 9.875L3.50002 9.875ZM2.50003 11.8393C2.50003 12.1154 2.72389 12.3393 3.00003 12.3393C3.27618 12.3393 3.50003 12.1154 3.50003 11.8393L2.50003 11.8393ZM3.50004 13.8036C3.50004 13.5274 3.27618 13.3036 3.00004 13.3036C2.72389 13.3036 2.50004 13.5274 2.50004 13.8036L3.50004 13.8036ZM2.50005 15.7679C2.50005 16.044 2.7239 16.2679 3.00005 16.2679C3.27619 16.2679 3.50005 16.044 3.50005 15.7679L2.50005 15.7679ZM3.50005 17.7321C3.50005 17.456 3.27619 17.2321 3.00005 17.2321C2.72391 17.2321 2.50005 17.456 2.50005 17.7321L3.50005 17.7321ZM2.50006 19.6964C2.50006 19.9726 2.72392 20.1964 3.00006 20.1964C3.2762 20.1964 3.50006 19.9726 3.50006 19.6964L2.50006 19.6964ZM3.50007 21.6607C3.50007 21.3846 3.27621 21.1607 3.00006 21.1607C2.72392 21.1607 2.50007 21.3846 2.50007 21.6607L3.50007 21.6607ZM2.50007 23.625C2.50007 23.9011 2.72393 24.125 3.00007 24.125C3.27622 24.125 3.50007 23.9011 3.50007 23.625L2.50007 23.625ZM3.50008 25.5893C3.50008 25.3131 3.27622 25.0893 3.00008 25.0893C2.72394 25.0893 2.50008 25.3131 2.50008 25.5893L3.50008 25.5893ZM2.50009 27.5536C2.50009 27.8297 2.72395 28.0536 3.00009 28.0536C3.27623 28.0536 3.50009 27.8297 3.50009 27.5536L2.50009 27.5536ZM3.50009 29.5179C3.50009 29.2417 3.27623 29.0179 3.00009 29.0179C2.72395 29.0179 2.50009 29.2417 2.50009 29.5179L3.50009 29.5179ZM3 3L2.5 3L2.5 3.98214L3 3.98214L3.5 3.98214L3.5 3L3 3ZM3.00001 5.94643L2.50001 5.94643L2.50002 7.91072L3.00002 7.91071L3.50002 7.91071L3.50001 5.94643L3.00001 5.94643ZM3.00002 9.875L2.50002 9.875L2.50003 11.8393L3.00003 11.8393L3.50003 11.8393L3.50002 9.875L3.00002 9.875ZM3.00004 13.8036L2.50004 13.8036L2.50005 15.7679L3.00005 15.7679L3.50005 15.7679L3.50004 13.8036L3.00004 13.8036ZM3.00005 17.7321L2.50005 17.7321L2.50006 19.6964L3.00006 19.6964L3.50006 19.6964L3.50005 17.7321L3.00005 17.7321ZM3.00007 21.6607L2.50007 21.6607L2.50007 23.625L3.00007 23.625L3.50007 23.625L3.50007 21.6607L3.00007 21.6607ZM3.00008 25.5893L2.50008 25.5893L2.50009 27.5536L3.00009 27.5536L3.50009 27.5536L3.50008 25.5893L3.00008 25.5893ZM3.00009 29.5179L2.50009 29.5179L2.5001 30.5L3.0001 30.5L3.5001 30.5L3.50009 29.5179L3.00009 29.5179Z" fill="white"/>
</svg>
