<svg width="22" height="31" viewBox="0 0 22 31" fill="none" xmlns="http://www.w3.org/2000/svg">
<path d="M21.1317 0.618625L17.1186 1.36832L17.8683 5.38137L21.8814 4.63168L21.1317 0.618625ZM1.99059 29.4389C2.14668 29.2111 2.08854 28.8999 1.86074 28.7438C1.63294 28.5877 1.32174 28.6458 1.16566 28.8736L1.99059 29.4389ZM2.32191 27.1861C2.16582 27.4139 2.22396 27.7251 2.45176 27.8812C2.67956 28.0373 2.99076 27.9792 3.14684 27.7514L2.32191 27.1861ZM4.30309 26.0639C4.45918 25.8361 4.40104 25.5249 4.17324 25.3688C3.94544 25.2127 3.63424 25.2708 3.47816 25.4986L4.30309 26.0639ZM4.63441 23.8111C4.47832 24.0389 4.53646 24.3501 4.76426 24.5062C4.99206 24.6623 5.30326 24.6042 5.45934 24.3764L4.63441 23.8111ZM6.61559 22.6889C6.77168 22.4611 6.71354 22.1499 6.48574 21.9938C6.25794 21.8377 5.94674 21.8958 5.79066 22.1236L6.61559 22.6889ZM6.94691 20.4361C6.79082 20.6639 6.84896 20.9751 7.07676 21.1312C7.30456 21.2873 7.61576 21.2292 7.77184 21.0014L6.94691 20.4361ZM8.92809 19.3139C9.08418 19.0861 9.02604 18.7749 8.79824 18.6188C8.57044 18.4627 8.25924 18.5208 8.10316 18.7486L8.92809 19.3139ZM9.25941 17.0611C9.10332 17.2889 9.16146 17.6001 9.38926 17.7562C9.61706 17.9123 9.92826 17.8542 10.0843 17.6264L9.25941 17.0611ZM11.2406 15.9389C11.3967 15.7111 11.3385 15.3999 11.1107 15.2438C10.8829 15.0877 10.5717 15.1458 10.4157 15.3736L11.2406 15.9389ZM11.5719 13.6861C11.4158 13.9139 11.474 14.2251 11.7018 14.3812C11.9296 14.5373 12.2408 14.4792 12.3968 14.2514L11.5719 13.6861ZM13.5531 12.5639C13.7092 12.3361 13.651 12.0249 13.4232 11.8688C13.1954 11.7127 12.8842 11.7708 12.7282 11.9986L13.5531 12.5639ZM13.8844 10.3111C13.7283 10.5389 13.7865 10.8501 14.0143 11.0062C14.2421 11.1623 14.5533 11.1042 14.7093 10.8764L13.8844 10.3111ZM15.8656 9.18887C16.0217 8.96107 15.9635 8.64987 15.7357 8.49379C15.5079 8.3377 15.1967 8.39584 15.0407 8.62364L15.8656 9.18887ZM16.1969 6.93614C16.0408 7.16394 16.099 7.47513 16.3268 7.63122C16.5546 7.7873 16.8658 7.72917 17.0218 7.50137L16.1969 6.93614ZM18.1781 5.81387C18.3342 5.58607 18.276 5.27487 18.0482 5.11879C17.8204 4.9627 17.5092 5.02084 17.3532 5.24864L18.1781 5.81387ZM18.5094 3.56114C18.3533 3.78894 18.4115 4.10014 18.6393 4.25622C18.8671 4.4123 19.1783 4.35417 19.3343 4.12637L18.5094 3.56114ZM1 30L1.41247 30.2826L1.99059 29.4389L1.57812 29.1562L1.16566 28.8736L0.587534 29.7174L1 30ZM2.73438 27.4688L3.14684 27.7514L4.30309 26.0639L3.89062 25.7812L3.47816 25.4986L2.32191 27.1861L2.73438 27.4688ZM5.04688 24.0938L5.45934 24.3764L6.61559 22.6889L6.20312 22.4062L5.79066 22.1236L4.63441 23.8111L5.04688 24.0938ZM7.35938 20.7188L7.77184 21.0014L8.92809 19.3139L8.51562 19.0312L8.10316 18.7486L6.94691 20.4361L7.35938 20.7188ZM9.67187 17.3438L10.0843 17.6264L11.2406 15.9389L10.8281 15.6563L10.4157 15.3736L9.25941 17.0611L9.67187 17.3438ZM11.9844 13.9688L12.3968 14.2514L13.5531 12.5639L13.1406 12.2813L12.7282 11.9986L11.5719 13.6861L11.9844 13.9688ZM14.2969 10.5938L14.7093 10.8764L15.8656 9.18887L15.4531 8.90625L15.0407 8.62364L13.8844 10.3111L14.2969 10.5938ZM16.6094 7.21875L17.0218 7.50137L18.1781 5.81387L17.7656 5.53125L17.3532 5.24864L16.1969 6.93614L16.6094 7.21875ZM18.9219 3.84375L19.3343 4.12637L19.9125 3.28262L19.5 3L19.0875 2.71738L18.5094 3.56114L18.9219 3.84375Z" fill="white"/>
</svg>
