<svg width="37" height="37" viewBox="0 0 37 37" fill="none" xmlns="http://www.w3.org/2000/svg">
<path d="M0.974167 0.443466L0.943466 4.52583L5.02583 4.55653L5.05653 0.474167L0.974167 0.443466ZM3.33129 3.5488C3.52508 3.74552 3.84165 3.7479 4.03838 3.55412C4.23511 3.36033 4.23749 3.04375 4.0437 2.84703L3.33129 3.5488ZM5.41869 4.24286C5.2249 4.04613 4.90833 4.04375 4.7116 4.23754C4.51488 4.43133 4.5125 4.7479 4.70628 4.94463L5.41869 4.24286ZM6.08127 6.34045C6.27506 6.53718 6.59164 6.53956 6.78836 6.34577C6.98509 6.15198 6.98747 5.83541 6.79368 5.63869L6.08127 6.34045ZM8.16867 7.03451C7.97488 6.83779 7.65831 6.83541 7.46158 7.0292C7.26486 7.22298 7.26248 7.53956 7.45626 7.73628L8.16867 7.03451ZM8.83126 9.13211C9.02504 9.32884 9.34162 9.33122 9.53834 9.13743C9.73507 8.94364 9.73745 8.62707 9.54366 8.43034L8.83126 9.13211ZM10.9187 9.82617C10.7249 9.62945 10.4083 9.62706 10.2116 9.82085C10.0148 10.0146 10.0125 10.3312 10.2062 10.5279L10.9187 9.82617ZM11.5812 11.9238C11.775 12.1205 12.0916 12.1229 12.2883 11.9291C12.485 11.7353 12.4874 11.4187 12.2936 11.222L11.5812 11.9238ZM13.6686 12.6178C13.4748 12.4211 13.1583 12.4187 12.9615 12.6125C12.7648 12.8063 12.7624 13.1229 12.9562 13.3196L13.6686 12.6178ZM14.3312 14.7154C14.525 14.9121 14.8416 14.9145 15.0383 14.7207C15.235 14.527 15.2374 14.2104 15.0436 14.0137L14.3312 14.7154ZM16.4186 15.4095C16.2248 15.2128 15.9083 15.2104 15.7115 15.4042C15.5148 15.598 15.5124 15.9145 15.7062 16.1113L16.4186 15.4095ZM17.0812 17.5071C17.275 17.7038 17.5916 17.7062 17.7883 17.5124C17.985 17.3186 17.9874 17.002 17.7936 16.8053L17.0812 17.5071ZM19.1686 18.2011C18.9748 18.0044 18.6582 18.002 18.4615 18.1958C18.2648 18.3896 18.2624 18.7062 18.4562 18.9029L19.1686 18.2011ZM19.8312 20.2987C20.025 20.4955 20.3415 20.4978 20.5383 20.3041C20.735 20.1103 20.7374 19.7937 20.5436 19.597L19.8312 20.2987ZM21.9186 20.9928C21.7248 20.7961 21.4082 20.7937 21.2115 20.9875C21.0148 21.1813 21.0124 21.4978 21.2062 21.6946L21.9186 20.9928ZM22.5812 23.0904C22.7749 23.2871 23.0915 23.2895 23.2882 23.0957C23.485 22.9019 23.4874 22.5853 23.2936 22.3886L22.5812 23.0904ZM24.6686 23.7845C24.4748 23.5877 24.1582 23.5853 23.9615 23.7791C23.7647 23.9729 23.7624 24.2895 23.9562 24.4862L24.6686 23.7845ZM25.3311 25.882C25.5249 26.0788 25.8415 26.0812 26.0382 25.8874C26.235 25.6936 26.2373 25.377 26.0435 25.1803L25.3311 25.882ZM27.4185 26.5761C27.2247 26.3794 26.9082 26.377 26.7115 26.5708C26.5147 26.7646 26.5123 27.0812 26.7061 27.2779L27.4185 26.5761ZM28.0811 28.6737C28.2749 28.8704 28.5915 28.8728 28.7882 28.679C28.9849 28.4852 28.9873 28.1687 28.7935 27.9719L28.0811 28.6737ZM30.1685 29.3678C29.9747 29.171 29.6582 29.1687 29.4614 29.3624C29.2647 29.5562 29.2623 29.8728 29.4561 30.0695L30.1685 29.3678ZM30.8311 31.4654C31.0249 31.6621 31.3415 31.6645 31.5382 31.4707C31.7349 31.2769 31.7373 30.9603 31.5435 30.7636L30.8311 31.4654ZM32.9185 32.1594C32.7247 31.9627 32.4081 31.9603 32.2114 32.1541C32.0147 32.3479 32.0123 32.6645 32.2061 32.8612L32.9185 32.1594ZM33.5811 34.257C33.7749 34.4537 34.0914 34.4561 34.2882 34.2623C34.4849 34.0685 34.4873 33.752 34.2935 33.5552L33.5811 34.257ZM35.6685 34.9511C35.4747 34.7544 35.1581 34.752 34.9614 34.9458C34.7647 35.1395 34.7623 35.4561 34.9561 35.6528L35.6685 34.9511ZM3 2.5L2.6438 2.85088L3.33129 3.5488L3.6875 3.19791L4.0437 2.84703L3.3562 2.14912L3 2.5ZM5.06249 4.59374L4.70628 4.94463L6.08127 6.34045L6.43748 5.98957L6.79368 5.63869L5.41869 4.24286L5.06249 4.59374ZM7.81247 7.3854L7.45626 7.73628L8.83126 9.13211L9.18746 8.78123L9.54366 8.43034L8.16867 7.03451L7.81247 7.3854ZM10.5624 10.1771L10.2062 10.5279L11.5812 11.9238L11.9374 11.5729L12.2936 11.222L10.9187 9.82617L10.5624 10.1771ZM13.3124 12.9687L12.9562 13.3196L14.3312 14.7154L14.6874 14.3645L15.0436 14.0137L13.6686 12.6178L13.3124 12.9687ZM16.0624 15.7604L15.7062 16.1113L17.0812 17.5071L17.4374 17.1562L17.7936 16.8053L16.4186 15.4095L16.0624 15.7604ZM18.8124 18.552L18.4562 18.9029L19.8312 20.2987L20.1874 19.9479L20.5436 19.597L19.1686 18.2011L18.8124 18.552ZM21.5624 21.3437L21.2062 21.6946L22.5812 23.0904L22.9374 22.7395L23.2936 22.3886L21.9186 20.9928L21.5624 21.3437ZM24.3124 24.1353L23.9562 24.4862L25.3311 25.882L25.6873 25.5312L26.0435 25.1803L24.6686 23.7845L24.3124 24.1353ZM27.0623 26.927L26.7061 27.2779L28.0811 28.6737L28.4373 28.3228L28.7935 27.9719L27.4185 26.5761L27.0623 26.927ZM29.8123 29.7186L29.4561 30.0695L30.8311 31.4654L31.1873 31.1145L31.5435 30.7636L30.1685 29.3678L29.8123 29.7186ZM32.5623 32.5103L32.2061 32.8612L33.5811 34.257L33.9373 33.9061L34.2935 33.5552L32.9185 32.1594L32.5623 32.5103ZM35.3123 35.302L34.9561 35.6528L35.6436 36.3508L35.9998 35.9999L36.356 35.649L35.6685 34.9511L35.3123 35.302Z" fill="white"/>
</svg>
