<svg width="20" height="18" viewBox="0 0 20 18" fill="none" xmlns="http://www.w3.org/2000/svg">
<path d="M19.6963 0.626652L15.6267 0.303662L15.3037 4.37335L19.3733 4.69634L19.6963 0.626652ZM1.53281 16.7762C1.74291 16.597 1.76795 16.2815 1.58875 16.0714C1.40955 15.8613 1.09396 15.8362 0.88386 16.0154L1.53281 16.7762ZM2.30053 14.8071C2.09043 14.9863 2.06538 15.3019 2.24458 15.512C2.42378 15.7221 2.73937 15.7471 2.94947 15.5679L2.30053 14.8071ZM4.36614 14.3596C4.57624 14.1804 4.60128 13.8648 4.42208 13.6547C4.24288 13.4446 3.92729 13.4195 3.71719 13.5988L4.36614 14.3596ZM5.13386 12.3904C4.92376 12.5696 4.89871 12.8852 5.07792 13.0953C5.25712 13.3054 5.57271 13.3305 5.78281 13.1513L5.13386 12.3904ZM7.19947 11.9429C7.40957 11.7637 7.43462 11.4481 7.25542 11.238C7.07622 11.0279 6.76063 11.0029 6.55053 11.1821L7.19947 11.9429ZM7.96719 9.97375C7.75709 10.153 7.73205 10.4685 7.91125 10.6786C8.09045 10.8887 8.40604 10.9138 8.61614 10.7346L7.96719 9.97375ZM10.0328 9.52625C10.2429 9.34705 10.268 9.03146 10.0888 8.82136C9.90955 8.61126 9.59396 8.58621 9.38386 8.76542L10.0328 9.52625ZM10.8005 7.55708C10.5904 7.73628 10.5654 8.05187 10.7446 8.26197C10.9238 8.47207 11.2394 8.49712 11.4495 8.31792L10.8005 7.55708ZM12.8661 7.10958C13.0762 6.93038 13.1013 6.61479 12.9221 6.40469C12.7429 6.1946 12.4273 6.16955 12.2172 6.34875L12.8661 7.10958ZM13.6339 5.14042C13.4238 5.31962 13.3987 5.63521 13.5779 5.84531C13.7571 6.0554 14.0727 6.08045 14.2828 5.90125L13.6339 5.14042ZM15.6995 4.69292C15.9096 4.51372 15.9346 4.19813 15.7554 3.98803C15.5762 3.77793 15.2606 3.75288 15.0505 3.93208L15.6995 4.69292ZM16.4672 2.72375C16.2571 2.90295 16.232 3.21854 16.4112 3.42864C16.5905 3.63874 16.906 3.66379 17.1161 3.48458L16.4672 2.72375ZM0.5 17L0.824473 17.3804L1.53281 16.7762L1.20833 16.3958L0.88386 16.0154L0.175527 16.6196L0.5 17ZM2.625 15.1875L2.94947 15.5679L4.36614 14.3596L4.04167 13.9792L3.71719 13.5988L2.30053 14.8071L2.625 15.1875ZM5.45833 12.7708L5.78281 13.1513L7.19947 11.9429L6.875 11.5625L6.55053 11.1821L5.13386 12.3904L5.45833 12.7708ZM8.29167 10.3542L8.61614 10.7346L10.0328 9.52625L9.70833 9.14583L9.38386 8.76542L7.96719 9.97375L8.29167 10.3542ZM11.125 7.9375L11.4495 8.31792L12.8661 7.10958L12.5417 6.72917L12.2172 6.34875L10.8005 7.55708L11.125 7.9375ZM13.9583 5.52083L14.2828 5.90125L15.6995 4.69292L15.375 4.3125L15.0505 3.93208L13.6339 5.14042L13.9583 5.52083ZM16.7917 3.10417L17.1161 3.48458L17.8245 2.88042L17.5 2.5L17.1755 2.11958L16.4672 2.72375L16.7917 3.10417Z" fill="white"/>
</svg>
