<svg width="58" height="42" viewBox="0 0 58 42" fill="none" xmlns="http://www.w3.org/2000/svg">
<path d="M57.875 1.35908L53.8591 0.624982L53.125 4.64092L57.1409 5.37502L57.875 1.35908ZM1.59304 40.8525C1.82023 40.6956 1.87716 40.3842 1.72019 40.157C1.56322 39.9298 1.2518 39.8728 1.02461 40.0298L1.59304 40.8525ZM2.64225 38.9122C2.41506 39.0691 2.35814 39.3806 2.51511 39.6077C2.67207 39.8349 2.9835 39.8919 3.21069 39.7349L2.64225 38.9122ZM4.82833 38.6172C5.05552 38.4603 5.11245 38.1489 4.95548 37.9217C4.79851 37.6945 4.48709 37.6376 4.2599 37.7945L4.82833 38.6172ZM5.87755 36.6769C5.65036 36.8338 5.59343 37.1453 5.7504 37.3725C5.90737 37.5996 6.21879 37.6566 6.44598 37.4996L5.87755 36.6769ZM8.06363 36.382C8.29082 36.225 8.34774 35.9136 8.19078 35.6864C8.03381 35.4592 7.72239 35.4023 7.4952 35.5592L8.06363 36.382ZM9.11284 34.4416C8.88565 34.5985 8.82872 34.91 8.98569 35.1372C9.14266 35.3643 9.45408 35.4213 9.68127 35.2643L9.11284 34.4416ZM11.2989 34.1467C11.5261 33.9897 11.583 33.6783 11.4261 33.4511C11.2691 33.2239 10.9577 33.167 10.7305 33.3239L11.2989 34.1467ZM12.3481 32.2063C12.1209 32.3633 12.064 32.6747 12.221 32.9019C12.378 33.1291 12.6894 33.186 12.9166 33.029L12.3481 32.2063ZM14.5342 31.9114C14.7614 31.7544 14.8183 31.443 14.6614 31.2158C14.5044 30.9886 14.193 30.9317 13.9658 31.0886L14.5342 31.9114ZM15.5834 29.971C15.3562 30.128 15.2993 30.4394 15.4563 30.6666C15.6132 30.8938 15.9247 30.9507 16.1519 30.7937L15.5834 29.971ZM17.7695 29.6761C17.9967 29.5191 18.0536 29.2077 17.8967 28.9805C17.7397 28.7533 17.4283 28.6964 17.2011 28.8533L17.7695 29.6761ZM18.8187 27.7357C18.5915 27.8927 18.5346 28.2041 18.6916 28.4313C18.8485 28.6585 19.16 28.7154 19.3872 28.5584L18.8187 27.7357ZM21.0048 27.4408C21.232 27.2838 21.2889 26.9724 21.132 26.7452C20.975 26.518 20.6636 26.4611 20.4364 26.618L21.0048 27.4408ZM22.054 25.5004C21.8268 25.6574 21.7699 25.9688 21.9269 26.196C22.0838 26.4232 22.3953 26.4801 22.6225 26.3231L22.054 25.5004ZM24.2401 25.2055C24.4673 25.0485 24.5242 24.7371 24.3672 24.5099C24.2103 24.2827 23.8989 24.2258 23.6717 24.3828L24.2401 25.2055ZM25.2893 23.2651C25.0621 23.4221 25.0052 23.7335 25.1622 23.9607C25.3191 24.1879 25.6306 24.2448 25.8577 24.0878L25.2893 23.2651ZM27.4754 22.9702C27.7026 22.8132 27.7595 22.5018 27.6025 22.2746C27.4456 22.0474 27.1342 21.9905 26.907 22.1475L27.4754 22.9702ZM28.5246 21.0298C28.2974 21.1868 28.2405 21.4982 28.3975 21.7254C28.5544 21.9526 28.8659 22.0095 29.093 21.8525L28.5246 21.0298ZM30.7107 20.7349C30.9379 20.5779 30.9948 20.2665 30.8378 20.0393C30.6809 19.8121 30.3695 19.7552 30.1423 19.9122L30.7107 20.7349ZM31.7599 18.7945C31.5327 18.9515 31.4758 19.2629 31.6328 19.4901C31.7897 19.7173 32.1011 19.7742 32.3283 19.6172L31.7599 18.7945ZM33.946 18.4996C34.1732 18.3426 34.2301 18.0312 34.0731 17.804C33.9162 17.5768 33.6047 17.5199 33.3776 17.6769L33.946 18.4996ZM34.9952 16.5592C34.768 16.7162 34.7111 17.0276 34.8681 17.2548C35.025 17.482 35.3364 17.5389 35.5636 17.3819L34.9952 16.5592ZM37.1813 16.2643C37.4085 16.1073 37.4654 15.7959 37.3084 15.5687C37.1515 15.3415 36.84 15.2846 36.6128 15.4416L37.1813 16.2643ZM38.2305 14.3239C38.0033 14.4809 37.9464 14.7923 38.1033 15.0195C38.2603 15.2467 38.5717 15.3036 38.7989 15.1467L38.2305 14.3239ZM40.4166 14.029C40.6438 13.872 40.7007 13.5606 40.5437 13.3334C40.3868 13.1062 40.0753 13.0493 39.8481 13.2063L40.4166 14.029ZM41.4658 12.0886C41.2386 12.2456 41.1817 12.557 41.3386 12.7842C41.4956 13.0114 41.807 13.0683 42.0342 12.9114L41.4658 12.0886ZM43.6519 11.7937C43.8791 11.6367 43.936 11.3253 43.779 11.0981C43.6221 10.8709 43.3106 10.814 43.0834 10.971L43.6519 11.7937ZM44.7011 9.85333C44.4739 10.0103 44.417 10.3217 44.5739 10.5489C44.7309 10.7761 45.0423 10.833 45.2695 10.6761L44.7011 9.85333ZM46.8872 9.55842C47.1144 9.40145 47.1713 9.09003 47.0143 8.86284C46.8573 8.63565 46.5459 8.57872 46.3187 8.73569L46.8872 9.55842ZM47.9364 7.61804C47.7092 7.77501 47.6523 8.08643 47.8092 8.31362C47.9662 8.54081 48.2776 8.59774 48.5048 8.44077L47.9364 7.61804ZM50.1225 7.32312C50.3497 7.16615 50.4066 6.85473 50.2496 6.62754C50.0926 6.40035 49.7812 6.34342 49.554 6.50039L50.1225 7.32312ZM51.1717 5.38274C50.9445 5.53971 50.8876 5.85113 51.0445 6.07833C51.2015 6.30552 51.5129 6.36244 51.7401 6.20547L51.1717 5.38274ZM53.3578 5.08783C53.5849 4.93086 53.6419 4.61944 53.4849 4.39225C53.3279 4.16506 53.0165 4.10813 52.7893 4.2651L53.3578 5.08783ZM54.407 3.14745C54.1798 3.30442 54.1229 3.61584 54.2798 3.84303C54.4368 4.07022 54.7482 4.12715 54.9754 3.97018L54.407 3.14745ZM0.5 41L0.784216 41.4114L1.59304 40.8525L1.30882 40.4412L1.02461 40.0298L0.215784 40.5886L0.5 41ZM2.92647 39.3235L3.21069 39.7349L4.82833 38.6172L4.54412 38.2059L4.2599 37.7945L2.64225 38.9122L2.92647 39.3235ZM6.16176 37.0882L6.44598 37.4996L8.06363 36.382L7.77941 35.9706L7.4952 35.5592L5.87755 36.6769L6.16176 37.0882ZM9.39706 34.8529L9.68127 35.2643L11.2989 34.1467L11.0147 33.7353L10.7305 33.3239L9.11284 34.4416L9.39706 34.8529ZM12.6324 32.6176L12.9166 33.029L14.5342 31.9114L14.25 31.5L13.9658 31.0886L12.3481 32.2063L12.6324 32.6176ZM15.8676 30.3824L16.1519 30.7937L17.7695 29.6761L17.4853 29.2647L17.2011 28.8533L15.5834 29.971L15.8676 30.3824ZM19.1029 28.1471L19.3872 28.5584L21.0048 27.4408L20.7206 27.0294L20.4364 26.618L18.8187 27.7357L19.1029 28.1471ZM22.3382 25.9118L22.6225 26.3231L24.2401 25.2055L23.9559 24.7941L23.6717 24.3828L22.054 25.5004L22.3382 25.9118ZM25.5735 23.6765L25.8577 24.0878L27.4754 22.9702L27.1912 22.5588L26.907 22.1475L25.2893 23.2651L25.5735 23.6765ZM28.8088 21.4412L29.093 21.8525L30.7107 20.7349L30.4265 20.3235L30.1423 19.9122L28.5246 21.0298L28.8088 21.4412ZM32.0441 19.2059L32.3283 19.6172L33.946 18.4996L33.6618 18.0882L33.3776 17.6769L31.7599 18.7945L32.0441 19.2059ZM35.2794 16.9706L35.5636 17.3819L37.1813 16.2643L36.8971 15.8529L36.6128 15.4416L34.9952 16.5592L35.2794 16.9706ZM38.5147 14.7353L38.7989 15.1467L40.4166 14.029L40.1324 13.6176L39.8481 13.2063L38.2305 14.3239L38.5147 14.7353ZM41.75 12.5L42.0342 12.9114L43.6519 11.7937L43.3677 11.3823L43.0834 10.971L41.4658 12.0886L41.75 12.5ZM44.9853 10.2647L45.2695 10.6761L46.8872 9.55842L46.6029 9.14705L46.3187 8.73569L44.7011 9.85333L44.9853 10.2647ZM48.2206 8.02941L48.5048 8.44077L50.1225 7.32312L49.8382 6.91176L49.554 6.50039L47.9364 7.61804L48.2206 8.02941ZM51.4559 5.79411L51.7401 6.20547L53.3578 5.08783L53.0735 4.67646L52.7893 4.2651L51.1717 5.38274L51.4559 5.79411ZM54.6912 3.55882L54.9754 3.97018L55.7842 3.41137L55.5 3L55.2158 2.58863L54.407 3.14745L54.6912 3.55882Z" fill="white"/>
</svg>
