<svg width="57" height="57" viewBox="0 0 57 57" fill="none" xmlns="http://www.w3.org/2000/svg">
<path d="M56.0412 0.458759H51.9588V4.54124H56.0412V0.458759ZM1.5575 55.6496C1.75276 55.4543 1.75276 55.1378 1.5575 54.9425C1.36224 54.7472 1.04566 54.7472 0.850394 54.9425L1.5575 55.6496ZM2.25829 53.5346C2.06303 53.7299 2.06303 54.0464 2.25829 54.2417C2.45355 54.437 2.77013 54.437 2.9654 54.2417L2.25829 53.5346ZM4.37329 52.8338C4.56855 52.6386 4.56855 52.322 4.37329 52.1267C4.17803 51.9314 3.86145 51.9314 3.66618 52.1267L4.37329 52.8338ZM5.07408 50.7188C4.87882 50.9141 4.87882 51.2307 5.07408 51.4259C5.26934 51.6212 5.58592 51.6212 5.78118 51.4259L5.07408 50.7188ZM7.18908 50.018C7.38434 49.8228 7.38434 49.5062 7.18908 49.3109C6.99382 49.1157 6.67723 49.1157 6.48197 49.3109L7.18908 50.018ZM7.88987 47.903C7.69461 48.0983 7.69461 48.4149 7.88987 48.6101C8.08513 48.8054 8.40171 48.8054 8.59697 48.6101L7.88987 47.903ZM10.0049 47.2022C10.2001 47.007 10.2001 46.6904 10.0049 46.4951C9.80961 46.2999 9.49302 46.2999 9.29776 46.4951L10.0049 47.2022ZM10.7057 45.0872C10.5104 45.2825 10.5104 45.5991 10.7057 45.7943C10.9009 45.9896 11.2175 45.9896 11.4128 45.7943L10.7057 45.0872ZM12.8207 44.3864C13.0159 44.1912 13.0159 43.8746 12.8207 43.6793C12.6254 43.4841 12.3088 43.4841 12.1136 43.6793L12.8207 44.3864ZM13.5214 42.2714C13.3262 42.4667 13.3262 42.7833 13.5214 42.9786C13.7167 43.1738 14.0333 43.1738 14.2286 42.9786L13.5214 42.2714ZM15.6364 41.5707C15.8317 41.3754 15.8317 41.0588 15.6364 40.8636C15.4412 40.6683 15.1246 40.6683 14.9293 40.8636L15.6364 41.5707ZM16.3372 39.4557C16.142 39.6509 16.142 39.9675 16.3372 40.1628C16.5325 40.358 16.8491 40.358 17.0443 40.1628L16.3372 39.4557ZM18.4522 38.7549C18.6475 38.5596 18.6475 38.243 18.4522 38.0478C18.257 37.8525 17.9404 37.8525 17.7451 38.0478L18.4522 38.7549ZM19.153 36.6399C18.9578 36.8351 18.9578 37.1517 19.153 37.347C19.3483 37.5422 19.6649 37.5422 19.8601 37.347L19.153 36.6399ZM21.268 35.9391C21.4633 35.7438 21.4633 35.4272 21.268 35.232C21.0728 35.0367 20.7562 35.0367 20.5609 35.232L21.268 35.9391ZM21.9688 33.8241C21.7736 34.0193 21.7736 34.3359 21.9688 34.5312C22.1641 34.7264 22.4807 34.7264 22.6759 34.5312L21.9688 33.8241ZM24.0838 33.1233C24.2791 32.928 24.2791 32.6114 24.0838 32.4162C23.8886 32.2209 23.572 32.2209 23.3767 32.4162L24.0838 33.1233ZM24.7846 31.0083C24.5893 31.2036 24.5893 31.5201 24.7846 31.7154C24.9799 31.9107 25.2964 31.9107 25.4917 31.7154L24.7846 31.0083ZM26.8996 30.3075C27.0949 30.1122 27.0949 29.7957 26.8996 29.6004C26.7043 29.4051 26.3878 29.4051 26.1925 29.6004L26.8996 30.3075ZM27.6004 28.1925C27.4051 28.3878 27.4051 28.7043 27.6004 28.8996C27.7957 29.0949 28.1122 29.0949 28.3075 28.8996L27.6004 28.1925ZM29.7154 27.4917C29.9107 27.2965 29.9107 26.9799 29.7154 26.7846C29.5201 26.5893 29.2035 26.5893 29.0083 26.7846L29.7154 27.4917ZM30.4162 25.3767C30.2209 25.572 30.2209 25.8886 30.4162 26.0838C30.6114 26.2791 30.928 26.2791 31.1233 26.0838L30.4162 25.3767ZM32.5312 24.6759C32.7264 24.4807 32.7264 24.1641 32.5312 23.9688C32.3359 23.7736 32.0193 23.7736 31.8241 23.9688L32.5312 24.6759ZM33.232 22.5609C33.0367 22.7562 33.0367 23.0728 33.232 23.268C33.4272 23.4633 33.7438 23.4633 33.9391 23.268L33.232 22.5609ZM35.347 21.8601C35.5422 21.6649 35.5422 21.3483 35.347 21.153C35.1517 20.9578 34.8351 20.9578 34.6399 21.153L35.347 21.8601ZM36.0478 19.7451C35.8525 19.9404 35.8525 20.257 36.0478 20.4522C36.243 20.6475 36.5596 20.6475 36.7549 20.4522L36.0478 19.7451ZM38.1628 19.0444C38.358 18.8491 38.358 18.5325 38.1628 18.3372C37.9675 18.142 37.6509 18.142 37.4557 18.3372L38.1628 19.0444ZM38.8635 16.9294C38.6683 17.1246 38.6683 17.4412 38.8635 17.6365C39.0588 17.8317 39.3754 17.8317 39.5706 17.6365L38.8635 16.9294ZM40.9785 16.2286C41.1738 16.0333 41.1738 15.7167 40.9785 15.5215C40.7833 15.3262 40.4667 15.3262 40.2714 15.5215L40.9785 16.2286ZM41.6793 14.1136C41.4841 14.3088 41.4841 14.6254 41.6793 14.8207C41.8746 15.0159 42.1912 15.0159 42.3864 14.8207L41.6793 14.1136ZM43.7943 13.4128C43.9896 13.2175 43.9896 12.9009 43.7943 12.7057C43.5991 12.5104 43.2825 12.5104 43.0872 12.7057L43.7943 13.4128ZM44.4951 11.2978C44.2999 11.493 44.2999 11.8096 44.4951 12.0049C44.6904 12.2001 45.007 12.2001 45.2022 12.0049L44.4951 11.2978ZM46.6101 10.597C46.8054 10.4017 46.8054 10.0851 46.6101 9.88988C46.4149 9.69462 46.0983 9.69462 45.903 9.88988L46.6101 10.597ZM47.3109 8.48199C47.1156 8.67725 47.1156 8.99383 47.3109 9.18909C47.5062 9.38436 47.8228 9.38436 48.018 9.18909L47.3109 8.48199ZM49.4259 7.7812C49.6212 7.58594 49.6212 7.26935 49.4259 7.07409C49.2306 6.87883 48.9141 6.87883 48.7188 7.07409L49.4259 7.7812ZM50.1267 5.6662C49.9314 5.86146 49.9314 6.17804 50.1267 6.3733C50.322 6.56856 50.6385 6.56856 50.8338 6.3733L50.1267 5.6662ZM52.2417 4.96541C52.437 4.77014 52.437 4.45356 52.2417 4.2583C52.0464 4.06304 51.7299 4.06304 51.5346 4.2583L52.2417 4.96541ZM52.9425 2.8504C52.7472 3.04567 52.7472 3.36225 52.9425 3.55751C53.1378 3.75277 53.4543 3.75277 53.6496 3.55751L52.9425 2.8504ZM0.5 56L0.853553 56.3536L1.5575 55.6496L1.20395 55.2961L0.850394 54.9425L0.146447 55.6464L0.5 56ZM2.61184 53.8882L2.9654 54.2417L4.37329 52.8338L4.01974 52.4803L3.66618 52.1267L2.25829 53.5346L2.61184 53.8882ZM5.42763 51.0724L5.78118 51.4259L7.18908 50.018L6.83553 49.6645L6.48197 49.3109L5.07408 50.7188L5.42763 51.0724ZM8.24342 48.2566L8.59697 48.6101L10.0049 47.2022L9.65132 46.8487L9.29776 46.4951L7.88987 47.903L8.24342 48.2566ZM11.0592 45.4408L11.4128 45.7943L12.8207 44.3864L12.4671 44.0329L12.1136 43.6793L10.7057 45.0872L11.0592 45.4408ZM13.875 42.625L14.2286 42.9786L15.6364 41.5707L15.2829 41.2171L14.9293 40.8636L13.5214 42.2714L13.875 42.625ZM16.6908 39.8092L17.0443 40.1628L18.4522 38.7549L18.0987 38.4013L17.7451 38.0478L16.3372 39.4557L16.6908 39.8092ZM19.5066 36.9934L19.8601 37.347L21.268 35.9391L20.9145 35.5855L20.5609 35.232L19.153 36.6399L19.5066 36.9934ZM22.3224 34.1776L22.6759 34.5312L24.0838 33.1233L23.7303 32.7697L23.3767 32.4162L21.9688 33.8241L22.3224 34.1776ZM25.1382 31.3618L25.4917 31.7154L26.8996 30.3075L26.5461 29.9539L26.1925 29.6004L24.7846 31.0083L25.1382 31.3618ZM27.9539 28.5461L28.3075 28.8996L29.7154 27.4917L29.3618 27.1382L29.0083 26.7846L27.6004 28.1925L27.9539 28.5461ZM30.7697 25.7303L31.1233 26.0838L32.5312 24.6759L32.1776 24.3224L31.8241 23.9688L30.4162 25.3767L30.7697 25.7303ZM33.5855 22.9145L33.9391 23.268L35.347 21.8601L34.9934 21.5066L34.6399 21.153L33.232 22.5609L33.5855 22.9145ZM36.4013 20.0987L36.7549 20.4522L38.1628 19.0444L37.8092 18.6908L37.4557 18.3372L36.0478 19.7451L36.4013 20.0987ZM39.2171 17.2829L39.5706 17.6365L40.9785 16.2286L40.625 15.875L40.2714 15.5215L38.8635 16.9294L39.2171 17.2829ZM42.0329 14.4671L42.3864 14.8207L43.7943 13.4128L43.4408 13.0592L43.0872 12.7057L41.6793 14.1136L42.0329 14.4671ZM44.8487 11.6513L45.2022 12.0049L46.6101 10.597L46.2566 10.2434L45.903 9.88988L44.4951 11.2978L44.8487 11.6513ZM47.6645 8.83554L48.018 9.18909L49.4259 7.7812L49.0724 7.42764L48.7188 7.07409L47.3109 8.48199L47.6645 8.83554ZM50.4803 6.01975L50.8338 6.3733L52.2417 4.96541L51.8881 4.61185L51.5346 4.2583L50.1267 5.6662L50.4803 6.01975ZM53.296 3.20396L53.6496 3.55751L54.3536 2.85355L54 2.5L53.6464 2.14645L52.9425 2.8504L53.296 3.20396Z" fill="white"/>
</svg>
