<svg width="6" height="48" viewBox="0 0 6 48" fill="none" xmlns="http://www.w3.org/2000/svg">
<path d="M3 0.540653L0.540653 3L3 5.45935L5.45935 3L3 0.540653ZM2.57403 3.86538C2.57403 4.10064 2.76474 4.29136 3 4.29136C3.23526 4.29136 3.42597 4.10064 3.42597 3.86538L2.57403 3.86538ZM3.42597 5.59615C3.42597 5.3609 3.23526 5.17018 3 5.17018C2.76474 5.17018 2.57403 5.3609 2.57403 5.59615L3.42597 5.59615ZM2.57403 7.32692C2.57403 7.56218 2.76474 7.75289 3 7.75289C3.23526 7.75289 3.42597 7.56218 3.42597 7.32692L2.57403 7.32692ZM3.42597 9.05769C3.42597 8.82244 3.23526 8.63172 3 8.63172C2.76474 8.63172 2.57403 8.82244 2.57403 9.05769L3.42597 9.05769ZM2.57403 10.7885C2.57403 11.0237 2.76474 11.2144 3 11.2144C3.23526 11.2144 3.42597 11.0237 3.42597 10.7885L2.57403 10.7885ZM3.42597 12.5192C3.42597 12.284 3.23526 12.0933 3 12.0933C2.76474 12.0933 2.57403 12.284 2.57403 12.5192L3.42597 12.5192ZM2.57403 14.25C2.57403 14.4853 2.76474 14.676 3 14.676C3.23526 14.676 3.42597 14.4853 3.42597 14.25L2.57403 14.25ZM3.42597 15.9808C3.42597 15.7455 3.23526 15.5548 3 15.5548C2.76474 15.5548 2.57403 15.7455 2.57403 15.9808L3.42597 15.9808ZM2.57403 17.7115C2.57403 17.9468 2.76474 18.1375 3 18.1375C3.23526 18.1375 3.42597 17.9468 3.42597 17.7115L2.57403 17.7115ZM3.42597 19.4423C3.42597 19.2071 3.23526 19.0163 3 19.0163C2.76474 19.0163 2.57403 19.2071 2.57403 19.4423L3.42597 19.4423ZM2.57403 21.1731C2.57403 21.4083 2.76474 21.5991 3 21.5991C3.23526 21.5991 3.42597 21.4083 3.42597 21.1731L2.57403 21.1731ZM3.42597 22.9038C3.42597 22.6686 3.23526 22.4779 3 22.4779C2.76474 22.4779 2.57403 22.6686 2.57403 22.9038L3.42597 22.9038ZM2.57403 24.6346C2.57403 24.8699 2.76474 25.0606 3 25.0606C3.23526 25.0606 3.42597 24.8699 3.42597 24.6346L2.57403 24.6346ZM3.42597 26.3654C3.42597 26.1301 3.23526 25.9394 3 25.9394C2.76474 25.9394 2.57403 26.1301 2.57403 26.3654L3.42597 26.3654ZM2.57403 28.0962C2.57403 28.3314 2.76474 28.5221 3 28.5221C3.23526 28.5221 3.42597 28.3314 3.42597 28.0962L2.57403 28.0962ZM3.42597 29.8269C3.42597 29.5917 3.23526 29.401 3 29.401C2.76474 29.401 2.57403 29.5917 2.57403 29.8269L3.42597 29.8269ZM2.57403 31.5577C2.57403 31.793 2.76474 31.9837 3 31.9837C3.23526 31.9837 3.42597 31.793 3.42597 31.5577L2.57403 31.5577ZM3.42597 33.2885C3.42597 33.0532 3.23526 32.8625 3 32.8625C2.76474 32.8625 2.57403 33.0532 2.57403 33.2885L3.42597 33.2885ZM2.57403 35.0192C2.57403 35.2545 2.76474 35.4452 3 35.4452C3.23526 35.4452 3.42597 35.2545 3.42597 35.0192L2.57403 35.0192ZM3.42597 36.75C3.42597 36.5148 3.23526 36.324 3 36.324C2.76474 36.324 2.57403 36.5148 2.57403 36.75L3.42597 36.75ZM2.57403 38.4808C2.57403 38.716 2.76474 38.9067 3 38.9067C3.23526 38.9067 3.42597 38.716 3.42597 38.4808L2.57403 38.4808ZM3.42597 40.2116C3.42597 39.9763 3.23526 39.7856 3 39.7856C2.76474 39.7856 2.57403 39.9763 2.57403 40.2116L3.42597 40.2116ZM2.57403 41.9423C2.57403 42.1776 2.76474 42.3683 3 42.3683C3.23526 42.3683 3.42597 42.1776 3.42597 41.9423L2.57403 41.9423ZM3.42597 43.6731C3.42597 43.4378 3.23526 43.2471 3 43.2471C2.76474 43.2471 2.57403 43.4378 2.57403 43.6731L3.42597 43.6731ZM2.57403 45.4039C2.57403 45.6391 2.76474 45.8298 3 45.8298C3.23526 45.8298 3.42597 45.6391 3.42597 45.4039L2.57403 45.4039ZM3.42597 47.1346C3.42597 46.8994 3.23526 46.7087 3 46.7087C2.76474 46.7087 2.57403 46.8994 2.57403 47.1346L3.42597 47.1346ZM3 3L2.57403 3L2.57403 3.86538L3 3.86538L3.42597 3.86538L3.42597 3L3 3ZM3 5.59615L2.57403 5.59615L2.57403 7.32692L3 7.32692L3.42597 7.32692L3.42597 5.59615L3 5.59615ZM3 9.05769L2.57403 9.05769L2.57403 10.7885L3 10.7885L3.42597 10.7885L3.42597 9.05769L3 9.05769ZM3 12.5192L2.57403 12.5192L2.57403 14.25L3 14.25L3.42597 14.25L3.42597 12.5192L3 12.5192ZM3 15.9808L2.57403 15.9808L2.57403 17.7115L3 17.7115L3.42597 17.7115L3.42597 15.9808L3 15.9808ZM3 19.4423L2.57403 19.4423L2.57403 21.1731L3 21.1731L3.42597 21.1731L3.42597 19.4423L3 19.4423ZM3 22.9038L2.57403 22.9038L2.57403 24.6346L3 24.6346L3.42597 24.6346L3.42597 22.9038L3 22.9038ZM3 26.3654L2.57403 26.3654L2.57403 28.0962L3 28.0962L3.42597 28.0962L3.42597 26.3654L3 26.3654ZM3 29.8269L2.57403 29.8269L2.57403 31.5577L3 31.5577L3.42597 31.5577L3.42597 29.8269L3 29.8269ZM3 33.2885L2.57403 33.2885L2.57403 35.0192L3 35.0192L3.42597 35.0192L3.42597 33.2885L3 33.2885ZM3 36.75L2.57403 36.75L2.57403 38.4808L3 38.4808L3.42597 38.4808L3.42597 36.75L3 36.75ZM3 40.2116L2.57403 40.2116L2.57403 41.9423L3 41.9423L3.42597 41.9423L3.42597 40.2116L3 40.2116ZM3 43.6731L2.57403 43.6731L2.57403 45.4039L3 45.4039L3.42597 45.4039L3.42597 43.6731L3 43.6731ZM3 47.1346L2.57403 47.1346L2.57403 48L3 48L3.42597 48L3.42597 47.1346L3 47.1346Z" fill="white"/>
</svg>
