<svg width="6" height="43" viewBox="0 0 6 43" fill="none" xmlns="http://www.w3.org/2000/svg">
<path d="M3 0.113249L0.113249 3L3 5.88675L5.88675 3L3 0.113249ZM2.5 4C2.5 4.27614 2.72386 4.5 3 4.5C3.27614 4.5 3.5 4.27614 3.5 4H2.5ZM3.5 6C3.5 5.72386 3.27614 5.5 3 5.5C2.72386 5.5 2.5 5.72386 2.5 6H3.5ZM2.5 8C2.5 8.27614 2.72386 8.5 3 8.5C3.27614 8.5 3.5 8.27614 3.5 8H2.5ZM3.5 10C3.5 9.72386 3.27614 9.5 3 9.5C2.72386 9.5 2.5 9.72386 2.5 10H3.5ZM2.5 12C2.5 12.2761 2.72386 12.5 3 12.5C3.27614 12.5 3.5 12.2761 3.5 12H2.5ZM3.5 14C3.5 13.7239 3.27614 13.5 3 13.5C2.72386 13.5 2.5 13.7239 2.5 14H3.5ZM2.5 16C2.5 16.2761 2.72386 16.5 3 16.5C3.27614 16.5 3.5 16.2761 3.5 16H2.5ZM3.5 18C3.5 17.7239 3.27614 17.5 3 17.5C2.72386 17.5 2.5 17.7239 2.5 18H3.5ZM2.5 20C2.5 20.2761 2.72386 20.5 3 20.5C3.27614 20.5 3.5 20.2761 3.5 20H2.5ZM3.5 22C3.5 21.7239 3.27614 21.5 3 21.5C2.72386 21.5 2.5 21.7239 2.5 22H3.5ZM2.5 24C2.5 24.2761 2.72386 24.5 3 24.5C3.27614 24.5 3.5 24.2761 3.5 24H2.5ZM3.5 26C3.5 25.7239 3.27614 25.5 3 25.5C2.72386 25.5 2.5 25.7239 2.5 26H3.5ZM2.5 28C2.5 28.2761 2.72386 28.5 3 28.5C3.27614 28.5 3.5 28.2761 3.5 28H2.5ZM3.5 30C3.5 29.7239 3.27614 29.5 3 29.5C2.72386 29.5 2.5 29.7239 2.5 30H3.5ZM2.5 32C2.5 32.2761 2.72386 32.5 3 32.5C3.27614 32.5 3.5 32.2761 3.5 32H2.5ZM3.5 34C3.5 33.7239 3.27614 33.5 3 33.5C2.72386 33.5 2.5 33.7239 2.5 34H3.5ZM2.5 36C2.5 36.2761 2.72386 36.5 3 36.5C3.27614 36.5 3.5 36.2761 3.5 36H2.5ZM3.5 38C3.5 37.7239 3.27614 37.5 3 37.5C2.72386 37.5 2.5 37.7239 2.5 38H3.5ZM2.5 40C2.5 40.2761 2.72386 40.5 3 40.5C3.27614 40.5 3.5 40.2761 3.5 40H2.5ZM3.5 42C3.5 41.7239 3.27614 41.5 3 41.5C2.72386 41.5 2.5 41.7239 2.5 42H3.5ZM3 3H2.5V4H3H3.5V3H3ZM3 6H2.5V8H3H3.5V6H3ZM3 10H2.5V12H3H3.5V10H3ZM3 14H2.5V16H3H3.5V14H3ZM3 18H2.5V20H3H3.5V18H3ZM3 22H2.5V24H3H3.5V22H3ZM3 26H2.5V28H3H3.5V26H3ZM3 30H2.5V32H3H3.5V30H3ZM3 34H2.5V36H3H3.5V34H3ZM3 38H2.5V40H3H3.5V38H3ZM3 42H2.5V43H3H3.5V42H3Z" fill="white"/>
</svg>
