<svg width="36" height="37" viewBox="0 0 36 37" fill="none" xmlns="http://www.w3.org/2000/svg">
<path d="M0.458759 0.958759V5.04124H4.54124V0.958759H0.458759ZM2.83395 4.04105C3.02921 4.23632 3.34579 4.23632 3.54105 4.04105C3.73632 3.84579 3.73632 3.52921 3.54105 3.33395L2.83395 4.04105ZM4.91605 4.70895C4.72079 4.51368 4.40421 4.51368 4.20895 4.70895C4.01368 4.90421 4.01368 5.22079 4.20895 5.41605L4.91605 4.70895ZM5.58395 6.79105C5.77921 6.98632 6.09579 6.98632 6.29105 6.79105C6.48632 6.59579 6.48632 6.27921 6.29105 6.08395L5.58395 6.79105ZM7.66605 7.45895C7.47079 7.26368 7.15421 7.26368 6.95895 7.45895C6.76368 7.65421 6.76368 7.97079 6.95895 8.16605L7.66605 7.45895ZM8.33395 9.54105C8.52921 9.73632 8.84579 9.73632 9.04105 9.54105C9.23632 9.34579 9.23632 9.02921 9.04105 8.83395L8.33395 9.54105ZM10.4161 10.2089C10.2208 10.0137 9.90421 10.0137 9.70895 10.2089C9.51368 10.4042 9.51368 10.7208 9.70895 10.9161L10.4161 10.2089ZM11.0839 12.2911C11.2792 12.4863 11.5958 12.4863 11.7911 12.2911C11.9863 12.0958 11.9863 11.7792 11.7911 11.5839L11.0839 12.2911ZM13.1661 12.9589C12.9708 12.7637 12.6542 12.7637 12.4589 12.9589C12.2637 13.1542 12.2637 13.4708 12.4589 13.6661L13.1661 12.9589ZM13.8339 15.0411C14.0292 15.2363 14.3458 15.2363 14.5411 15.0411C14.7363 14.8458 14.7363 14.5292 14.5411 14.3339L13.8339 15.0411ZM15.9161 15.7089C15.7208 15.5137 15.4042 15.5137 15.2089 15.7089C15.0137 15.9042 15.0137 16.2208 15.2089 16.4161L15.9161 15.7089ZM16.5839 17.7911C16.7792 17.9863 17.0958 17.9863 17.2911 17.7911C17.4863 17.5958 17.4863 17.2792 17.2911 17.0839L16.5839 17.7911ZM18.6661 18.4589C18.4708 18.2637 18.1542 18.2637 17.9589 18.4589C17.7637 18.6542 17.7637 18.9708 17.9589 19.1661L18.6661 18.4589ZM19.3339 20.5411C19.5292 20.7363 19.8458 20.7363 20.0411 20.5411C20.2363 20.3458 20.2363 20.0292 20.0411 19.8339L19.3339 20.5411ZM21.4161 21.2089C21.2208 21.0137 20.9042 21.0137 20.7089 21.2089C20.5137 21.4042 20.5137 21.7208 20.7089 21.9161L21.4161 21.2089ZM22.0839 23.2911C22.2792 23.4863 22.5958 23.4863 22.7911 23.2911C22.9863 23.0958 22.9863 22.7792 22.7911 22.5839L22.0839 23.2911ZM24.1661 23.9589C23.9708 23.7637 23.6542 23.7637 23.4589 23.9589C23.2637 24.1542 23.2637 24.4708 23.4589 24.6661L24.1661 23.9589ZM24.8339 26.0411C25.0292 26.2363 25.3458 26.2363 25.5411 26.0411C25.7363 25.8458 25.7363 25.5292 25.5411 25.3339L24.8339 26.0411ZM26.9161 26.7089C26.7208 26.5137 26.4042 26.5137 26.2089 26.7089C26.0137 26.9042 26.0137 27.2208 26.2089 27.4161L26.9161 26.7089ZM27.5839 28.7911C27.7792 28.9863 28.0958 28.9863 28.2911 28.7911C28.4863 28.5958 28.4863 28.2792 28.2911 28.0839L27.5839 28.7911ZM29.6661 29.4589C29.4708 29.2637 29.1542 29.2637 28.9589 29.4589C28.7637 29.6542 28.7637 29.9708 28.9589 30.1661L29.6661 29.4589ZM30.3339 31.541C30.5292 31.7363 30.8458 31.7363 31.041 31.541C31.2363 31.3458 31.2363 31.0292 31.041 30.8339L30.3339 31.541ZM32.416 32.2089C32.2208 32.0137 31.9042 32.0137 31.7089 32.2089C31.5137 32.4042 31.5137 32.7208 31.7089 32.916L32.416 32.2089ZM33.0839 34.291C33.2792 34.4863 33.5958 34.4863 33.791 34.291C33.9863 34.0958 33.9863 33.7792 33.791 33.5839L33.0839 34.291ZM35.166 34.9589C34.9708 34.7637 34.6542 34.7637 34.4589 34.9589C34.2637 35.1542 34.2637 35.4708 34.4589 35.666L35.166 34.9589ZM2.5 3L2.14645 3.35355L2.83395 4.04105L3.1875 3.6875L3.54105 3.33395L2.85355 2.64645L2.5 3ZM4.5625 5.0625L4.20895 5.41605L5.58395 6.79105L5.9375 6.4375L6.29105 6.08395L4.91605 4.70895L4.5625 5.0625ZM7.3125 7.8125L6.95895 8.16605L8.33395 9.54105L8.6875 9.1875L9.04105 8.83395L7.66605 7.45895L7.3125 7.8125ZM10.0625 10.5625L9.70895 10.9161L11.0839 12.2911L11.4375 11.9375L11.7911 11.5839L10.4161 10.2089L10.0625 10.5625ZM12.8125 13.3125L12.4589 13.6661L13.8339 15.0411L14.1875 14.6875L14.5411 14.3339L13.1661 12.9589L12.8125 13.3125ZM15.5625 16.0625L15.2089 16.4161L16.5839 17.7911L16.9375 17.4375L17.2911 17.0839L15.9161 15.7089L15.5625 16.0625ZM18.3125 18.8125L17.9589 19.1661L19.3339 20.5411L19.6875 20.1875L20.0411 19.8339L18.6661 18.4589L18.3125 18.8125ZM21.0625 21.5625L20.7089 21.9161L22.0839 23.2911L22.4375 22.9375L22.7911 22.5839L21.4161 21.2089L21.0625 21.5625ZM23.8125 24.3125L23.4589 24.6661L24.8339 26.0411L25.1875 25.6875L25.5411 25.3339L24.1661 23.9589L23.8125 24.3125ZM26.5625 27.0625L26.2089 27.4161L27.5839 28.7911L27.9375 28.4375L28.2911 28.0839L26.9161 26.7089L26.5625 27.0625ZM29.3125 29.8125L28.9589 30.1661L30.3339 31.541L30.6875 31.1875L31.041 30.8339L29.6661 29.4589L29.3125 29.8125ZM32.0625 32.5625L31.7089 32.916L33.0839 34.291L33.4375 33.9375L33.791 33.5839L32.416 32.2089L32.0625 32.5625ZM34.8125 35.3125L34.4589 35.666L35.1464 36.3536L35.5 36L35.8536 35.6464L35.166 34.9589L34.8125 35.3125Z" fill="white"/>
</svg>
