<svg width="24" height="32" viewBox="0 0 24 32" fill="none" xmlns="http://www.w3.org/2000/svg">
<path d="M0.814341 0.156523L0.156523 4.18566L4.18566 4.84348L4.84348 0.814341L0.814341 0.156523ZM2.66354 3.58363C2.82479 3.80781 3.13724 3.85882 3.36141 3.69757C3.58558 3.53632 3.63659 3.22388 3.47535 2.9997L2.66354 3.58363ZM4.61424 4.58304C4.45299 4.35886 4.14054 4.30785 3.91637 4.4691C3.69219 4.63035 3.64118 4.94279 3.80243 5.16696L4.61424 4.58304ZM4.94132 6.7503C5.10257 6.97447 5.41501 7.02548 5.63919 6.86424C5.86336 6.70299 5.91437 6.39054 5.75312 6.16637L4.94132 6.7503ZM6.89201 7.7497C6.73077 7.52553 6.41832 7.47452 6.19415 7.63576C5.96997 7.79701 5.91896 8.10946 6.08021 8.33363L6.89201 7.7497ZM7.2191 9.91696C7.38035 10.1411 7.69279 10.1921 7.91696 10.0309C8.14114 9.86965 8.19215 9.55721 8.0309 9.33304L7.2191 9.91696ZM9.16979 10.9164C9.00854 10.6922 8.6961 10.6412 8.47192 10.8024C8.24775 10.9637 8.19674 11.2761 8.35799 11.5003L9.16979 10.9164ZM9.49688 13.0836C9.65812 13.3078 9.97057 13.3588 10.1947 13.1976C10.4189 13.0363 10.4699 12.7239 10.3087 12.4997L9.49688 13.0836ZM11.4476 14.083C11.2863 13.8589 10.9739 13.8079 10.7497 13.9691C10.5255 14.1303 10.4745 14.4428 10.6358 14.667L11.4476 14.083ZM11.7747 16.2503C11.9359 16.4745 12.2483 16.5255 12.4725 16.3642C12.6967 16.203 12.7477 15.8905 12.5865 15.6664L11.7747 16.2503ZM13.7253 17.2497C13.5641 17.0255 13.2517 16.9745 13.0275 17.1358C12.8033 17.297 12.7523 17.6095 12.9135 17.8336L13.7253 17.2497ZM14.0524 19.417C14.2137 19.6411 14.5261 19.6922 14.7503 19.5309C14.9745 19.3697 15.0255 19.0572 14.8642 18.833L14.0524 19.417ZM16.0031 20.4164C15.8419 20.1922 15.5294 20.1412 15.3053 20.3024C15.0811 20.4637 15.0301 20.7761 15.1913 21.0003L16.0031 20.4164ZM16.3302 22.5836C16.4915 22.8078 16.8039 22.8588 17.0281 22.6976C17.2522 22.5363 17.3033 22.2239 17.142 21.9997L16.3302 22.5836ZM18.2809 23.583C18.1197 23.3589 17.8072 23.3079 17.583 23.4691C17.3589 23.6303 17.3079 23.9428 17.4691 24.167L18.2809 23.583ZM18.608 25.7503C18.7692 25.9745 19.0817 26.0255 19.3059 25.8642C19.53 25.703 19.581 25.3905 19.4198 25.1664L18.608 25.7503ZM20.5587 26.7497C20.3974 26.5255 20.085 26.4745 19.8608 26.6358C19.6366 26.797 19.5856 27.1095 19.7469 27.3336L20.5587 26.7497ZM20.8858 28.917C21.047 29.1411 21.3595 29.1922 21.5836 29.0309C21.8078 28.8697 21.8588 28.5572 21.6976 28.333L20.8858 28.917ZM22.8365 29.9164C22.6752 29.6922 22.3628 29.6412 22.1386 29.8024C21.9144 29.9637 21.8634 30.2761 22.0247 30.5003L22.8365 29.9164ZM2.5 2.5L2.0941 2.79196L2.66354 3.58363L3.06944 3.29167L3.47535 2.9997L2.9059 2.20804L2.5 2.5ZM4.20833 4.875L3.80243 5.16696L4.94132 6.7503L5.34722 6.45833L5.75312 6.16637L4.61424 4.58304L4.20833 4.875ZM6.48611 8.04167L6.08021 8.33363L7.2191 9.91696L7.625 9.625L8.0309 9.33304L6.89201 7.7497L6.48611 8.04167ZM8.76389 11.2083L8.35799 11.5003L9.49688 13.0836L9.90278 12.7917L10.3087 12.4997L9.16979 10.9164L8.76389 11.2083ZM11.0417 14.375L10.6358 14.667L11.7747 16.2503L12.1806 15.9583L12.5865 15.6664L11.4476 14.083L11.0417 14.375ZM13.3194 17.5417L12.9135 17.8336L14.0524 19.417L14.4583 19.125L14.8642 18.833L13.7253 17.2497L13.3194 17.5417ZM15.5972 20.7083L15.1913 21.0003L16.3302 22.5836L16.7361 22.2917L17.142 21.9997L16.0031 20.4164L15.5972 20.7083ZM17.875 23.875L17.4691 24.167L18.608 25.7503L19.0139 25.4583L19.4198 25.1664L18.2809 23.583L17.875 23.875ZM20.1528 27.0417L19.7469 27.3336L20.8858 28.917L21.2917 28.625L21.6976 28.333L20.5587 26.7497L20.1528 27.0417ZM22.4306 30.2083L22.0247 30.5003L22.5941 31.292L23 31L23.4059 30.708L22.8365 29.9164L22.4306 30.2083Z" fill="white"/>
</svg>
