<svg width="40" height="18" viewBox="0 0 40 18" fill="none" xmlns="http://www.w3.org/2000/svg">
<path d="M0.814533 1.94094L2.44094 5.68547L6.18547 4.05906L4.55906 0.314533L0.814533 1.94094ZM4.20407 3.81514C4.46095 3.91644 4.75133 3.79032 4.85264 3.53343C4.95394 3.27655 4.82782 2.98617 4.57093 2.88486L4.20407 3.81514ZM6.34593 3.58486C6.08905 3.48356 5.79867 3.60968 5.69736 3.86657C5.59606 4.12345 5.72218 4.41383 5.97907 4.51514L6.34593 3.58486ZM7.75407 5.21514C8.01095 5.31644 8.30133 5.19032 8.40264 4.93343C8.50394 4.67655 8.37782 4.38617 8.12093 4.28486L7.75407 5.21514ZM9.89593 4.98486C9.63905 4.88356 9.34867 5.00968 9.24736 5.26657C9.14606 5.52345 9.27218 5.81383 9.52907 5.91514L9.89593 4.98486ZM11.3041 6.61514C11.561 6.71644 11.8513 6.59032 11.9526 6.33343C12.0539 6.07655 11.9278 5.78617 11.6709 5.68486L11.3041 6.61514ZM13.4459 6.38486C13.189 6.28356 12.8987 6.40968 12.7974 6.66657C12.6961 6.92345 12.8222 7.21383 13.0791 7.31514L13.4459 6.38486ZM14.8541 8.01514C15.111 8.11644 15.4013 7.99032 15.5026 7.73343C15.6039 7.47655 15.4778 7.18617 15.2209 7.08486L14.8541 8.01514ZM16.9959 7.78486C16.739 7.68356 16.4487 7.80968 16.3474 8.06657C16.2461 8.32345 16.3722 8.61383 16.6291 8.71514L16.9959 7.78486ZM18.4041 9.41514C18.661 9.51644 18.9513 9.39032 19.0526 9.13343C19.1539 8.87655 19.0278 8.58617 18.7709 8.48486L18.4041 9.41514ZM20.5459 9.18486C20.289 9.08356 19.9987 9.20968 19.8974 9.46657C19.7961 9.72345 19.9222 10.0138 20.1791 10.1151L20.5459 9.18486ZM21.9541 10.8151C22.211 10.9164 22.5013 10.7903 22.6026 10.5334C22.7039 10.2765 22.5778 9.98617 22.3209 9.88486L21.9541 10.8151ZM24.0959 10.5849C23.839 10.4836 23.5487 10.6097 23.4474 10.8666C23.3461 11.1235 23.4722 11.4138 23.7291 11.5151L24.0959 10.5849ZM25.5041 12.2151C25.761 12.3164 26.0513 12.1903 26.1526 11.9334C26.2539 11.6765 26.1278 11.3862 25.8709 11.2849L25.5041 12.2151ZM27.6459 11.9849C27.389 11.8836 27.0987 12.0097 26.9974 12.2666C26.8961 12.5235 27.0222 12.8138 27.2791 12.9151L27.6459 11.9849ZM29.0541 13.6151C29.311 13.7164 29.6013 13.5903 29.7026 13.3334C29.8039 13.0765 29.6778 12.7862 29.4209 12.6849L29.0541 13.6151ZM31.1959 13.3849C30.939 13.2836 30.6487 13.4097 30.5474 13.6666C30.4461 13.9235 30.5722 14.2138 30.8291 14.3151L31.1959 13.3849ZM32.6041 15.0151C32.861 15.1164 33.1513 14.9903 33.2526 14.7334C33.3539 14.4765 33.2278 14.1862 32.9709 14.0849L32.6041 15.0151ZM34.7459 14.7849C34.4891 14.6836 34.1987 14.8097 34.0974 15.0666C33.9961 15.3235 34.1222 15.6138 34.3791 15.7151L34.7459 14.7849ZM36.1541 16.4151C36.411 16.5164 36.7013 16.3903 36.8026 16.1334C36.9039 15.8765 36.7778 15.5862 36.5209 15.4849L36.1541 16.4151ZM38.2959 16.1849C38.0391 16.0836 37.7487 16.2097 37.6474 16.4666C37.5461 16.7235 37.6722 17.0138 37.9291 17.1151L38.2959 16.1849ZM3.5 3L3.31657 3.46514L4.20407 3.81514L4.3875 3.35L4.57093 2.88486L3.68343 2.53486L3.5 3ZM6.1625 4.05L5.97907 4.51514L7.75407 5.21514L7.9375 4.75L8.12093 4.28486L6.34593 3.58486L6.1625 4.05ZM9.7125 5.45L9.52907 5.91514L11.3041 6.61514L11.4875 6.15L11.6709 5.68486L9.89593 4.98486L9.7125 5.45ZM13.2625 6.85L13.0791 7.31514L14.8541 8.01514L15.0375 7.55L15.2209 7.08486L13.4459 6.38486L13.2625 6.85ZM16.8125 8.25L16.6291 8.71514L18.4041 9.41514L18.5875 8.95L18.7709 8.48486L16.9959 7.78486L16.8125 8.25ZM20.3625 9.65L20.1791 10.1151L21.9541 10.8151L22.1375 10.35L22.3209 9.88486L20.5459 9.18486L20.3625 9.65ZM23.9125 11.05L23.7291 11.5151L25.5041 12.2151L25.6875 11.75L25.8709 11.2849L24.0959 10.5849L23.9125 11.05ZM27.4625 12.45L27.2791 12.9151L29.0541 13.6151L29.2375 13.15L29.4209 12.6849L27.6459 11.9849L27.4625 12.45ZM31.0125 13.85L30.8291 14.3151L32.6041 15.0151L32.7875 14.55L32.9709 14.0849L31.1959 13.3849L31.0125 13.85ZM34.5625 15.25L34.3791 15.7151L36.1541 16.4151L36.3375 15.95L36.5209 15.4849L34.7459 14.7849L34.5625 15.25ZM38.1125 16.65L37.9291 17.1151L38.8166 17.4651L39 17L39.1834 16.5349L38.2959 16.1849L38.1125 16.65Z" fill="white"/>
</svg>
