<svg width="36" height="18" viewBox="0 0 36 18" fill="none" xmlns="http://www.w3.org/2000/svg">
<path d="M0.840251 2.37792L2.37792 6.15975L6.15975 4.62208L4.62208 0.840251L0.840251 2.37792ZM4.19454 4.33568C4.44897 4.44302 4.74223 4.32378 4.84957 4.06935C4.95691 3.81492 4.83767 3.52165 4.58324 3.41432L4.19454 4.33568ZM6.36102 4.16432C6.10659 4.05698 5.81332 4.17622 5.70598 4.43065C5.59865 4.68508 5.71789 4.97835 5.97232 5.08568L6.36102 4.16432ZM7.75009 5.83568C8.00452 5.94302 8.29779 5.82378 8.40513 5.56935C8.51246 5.31492 8.39322 5.02165 8.13879 4.91432L7.75009 5.83568ZM9.91657 5.66432C9.66214 5.55698 9.36888 5.67622 9.26154 5.93065C9.1542 6.18508 9.27344 6.47835 9.52787 6.58568L9.91657 5.66432ZM11.3056 7.33568C11.5601 7.44302 11.8533 7.32378 11.9607 7.06935C12.068 6.81492 11.9488 6.52165 11.6944 6.41432L11.3056 7.33568ZM13.4721 7.16432C13.2177 7.05698 12.9244 7.17622 12.8171 7.43065C12.7098 7.68508 12.829 7.97835 13.0834 8.08568L13.4721 7.16432ZM14.8612 8.83568C15.1156 8.94302 15.4089 8.82378 15.5162 8.56935C15.6236 8.31492 15.5043 8.02166 15.2499 7.91432L14.8612 8.83568ZM17.0277 8.66432C16.7733 8.55698 16.48 8.67622 16.3727 8.93065C16.2653 9.18508 16.3846 9.47835 16.639 9.58568L17.0277 8.66432ZM18.4168 10.3357C18.6712 10.443 18.9645 10.3238 19.0718 10.0694C19.1791 9.81492 19.0599 9.52165 18.8055 9.41432L18.4168 10.3357ZM20.5832 10.1643C20.3288 10.057 20.0355 10.1762 19.9282 10.4306C19.8209 10.6851 19.9401 10.9783 20.1945 11.0857L20.5832 10.1643ZM21.9723 11.8357C22.2267 11.943 22.52 11.8238 22.6273 11.5694C22.7347 11.3149 22.6154 11.0217 22.361 10.9143L21.9723 11.8357ZM24.1388 11.6643C23.8844 11.557 23.5911 11.6762 23.4838 11.9307C23.3764 12.1851 23.4957 12.4783 23.7501 12.5857L24.1388 11.6643ZM25.5279 13.3357C25.7823 13.443 26.0756 13.3238 26.1829 13.0694C26.2902 12.8149 26.171 12.5217 25.9166 12.4143L25.5279 13.3357ZM27.6944 13.1643C27.4399 13.057 27.1467 13.1762 27.0393 13.4307C26.932 13.6851 27.0512 13.9783 27.3057 14.0857L27.6944 13.1643ZM29.0834 14.8357C29.3379 14.943 29.6311 14.8238 29.7385 14.5694C29.8458 14.3149 29.7266 14.0217 29.4721 13.9143L29.0834 14.8357ZM31.2499 14.6643C30.9955 14.557 30.7022 14.6762 30.5949 14.9307C30.4875 15.1851 30.6068 15.4783 30.8612 15.5857L31.2499 14.6643ZM32.639 16.3357C32.8934 16.443 33.1867 16.3238 33.294 16.0694C33.4014 15.8149 33.2821 15.5217 33.0277 15.4143L32.639 16.3357ZM34.8055 16.1643C34.551 16.057 34.2578 16.1762 34.1504 16.4307C34.0431 16.6851 34.1623 16.9783 34.4168 17.0857L34.8055 16.1643ZM3.5 3.5L3.30565 3.96068L4.19454 4.33568L4.38889 3.875L4.58324 3.41432L3.69435 3.03932L3.5 3.5ZM6.16667 4.625L5.97232 5.08568L7.75009 5.83568L7.94444 5.375L8.13879 4.91432L6.36102 4.16432L6.16667 4.625ZM9.72222 6.125L9.52787 6.58568L11.3056 7.33568L11.5 6.875L11.6944 6.41432L9.91657 5.66432L9.72222 6.125ZM13.2778 7.625L13.0834 8.08568L14.8612 8.83568L15.0556 8.375L15.2499 7.91432L13.4721 7.16432L13.2778 7.625ZM16.8333 9.125L16.639 9.58568L18.4168 10.3357L18.6111 9.875L18.8055 9.41432L17.0277 8.66432L16.8333 9.125ZM20.3889 10.625L20.1945 11.0857L21.9723 11.8357L22.1667 11.375L22.361 10.9143L20.5832 10.1643L20.3889 10.625ZM23.9444 12.125L23.7501 12.5857L25.5279 13.3357L25.7222 12.875L25.9166 12.4143L24.1388 11.6643L23.9444 12.125ZM27.5 13.625L27.3057 14.0857L29.0834 14.8357L29.2778 14.375L29.4721 13.9143L27.6944 13.1643L27.5 13.625ZM31.0556 15.125L30.8612 15.5857L32.639 16.3357L32.8333 15.875L33.0277 15.4143L31.2499 14.6643L31.0556 15.125ZM34.6111 16.625L34.4168 17.0857L35.3056 17.4607L35.5 17L35.6944 16.5393L34.8055 16.1643L34.6111 16.625Z" fill="white"/>
</svg>
